<svg xmlns="http://www.w3.org/2000/svg" xmlns:xlink="http://www.w3.org/1999/xlink" width="492" zoomAndPan="magnify" viewBox="0 0 369 388.499989" height="518" preserveAspectRatio="xMidYMid meet" version="1.0"><defs><clipPath id="0fbca3a473"><path d="M 250 133 L 293.574219 133 L 293.574219 172 L 250 172 Z M 250 133 " clip-rule="nonzero"/></clipPath><clipPath id="1e0d68ca44"><path d="M 185.210938 153 L 287 153 L 287 214.238281 L 185.210938 214.238281 Z M 185.210938 153 " clip-rule="nonzero"/></clipPath><clipPath id="ece5b5dbd0"><path d="M 257 119.328125 L 277 119.328125 L 277 160 L 257 160 Z M 257 119.328125 " clip-rule="nonzero"/></clipPath><clipPath id="6c4a475cbe"><path d="M 75.765625 167 L 216 167 L 216 265 L 75.765625 265 Z M 75.765625 167 " clip-rule="nonzero"/></clipPath><clipPath id="8b1648b630"><path d="M 254.039062 223.6875 L 281.136719 223.6875 L 281.136719 236.925781 L 254.039062 236.925781 Z M 254.039062 223.6875 " clip-rule="nonzero"/></clipPath><clipPath id="e67a3e647a"><path d="M 107 248.125 L 250.484375 248.125 L 250.484375 312.929688 L 107 312.929688 Z M 107 248.125 " clip-rule="nonzero"/></clipPath></defs><g clip-path="url(#0fbca3a473)"><path fill="#efe7d0" d="M 250.664062 166.238281 C 250.664062 166.238281 253.890625 171.261719 257.171875 171.667969 C 259.328125 171.933594 264.054688 169.800781 268.425781 165.757812 C 274.023438 160.582031 272.046875 157.847656 277.746094 155.1875 C 281.777344 153.304688 286.015625 152.566406 289.28125 149.488281 C 292.550781 146.410156 293.550781 143.390625 292.792969 141 C 291.882812 138.117188 286.734375 133.140625 286.734375 133.140625 C 286.734375 133.140625 278.320312 142.714844 270.761719 148.007812 C 263.203125 153.300781 250.664062 166.238281 250.664062 166.238281 " fill-opacity="1" fill-rule="nonzero"/></g><path fill="#ab5f44" d="M 257.585938 166.925781 C 257.585938 166.925781 251.785156 169.121094 249.78125 165 C 247.777344 160.882812 250.28125 148.074219 264.496094 137.28125 C 275.238281 129.121094 279.683594 128.460938 284.238281 131.050781 C 288.792969 133.640625 291.375 140.890625 287.589844 144.652344 C 283.804688 148.414062 274.136719 149.886719 270.242188 154.269531 C 266.351562 158.652344 260.507812 165.410156 257.585938 166.925781 " fill-opacity="1" fill-rule="nonzero"/><path fill="#fcf8eb" d="M 288.367188 141.746094 C 288.113281 142.648438 287.660156 143.433594 287.015625 144.074219 C 286.707031 144.378906 286.335938 144.6875 285.910156 144.988281 C 284.179688 146.207031 281.777344 147.191406 279.230469 148.234375 C 276.542969 149.335938 273.765625 150.472656 271.625 151.984375 C 270.828125 152.546875 270.175781 153.117188 269.632812 153.730469 C 269.316406 154.085938 268.984375 154.460938 268.644531 154.84375 C 265.304688 158.617188 260.730469 163.78125 257.984375 165.722656 C 257.71875 165.910156 257.472656 166.0625 257.257812 166.179688 C 257.015625 166.265625 255.773438 166.671875 254.382812 166.695312 C 253.523438 166.707031 252.777344 166.570312 252.164062 166.289062 C 251.429688 165.949219 250.886719 165.414062 250.515625 164.644531 C 249.652344 162.871094 249.71875 158.878906 251.808594 153.960938 C 253.53125 149.90625 257.21875 143.832031 264.988281 137.929688 C 265.980469 137.175781 266.933594 136.476562 267.816406 135.855469 C 276.523438 129.707031 280.164062 129.671875 283.835938 131.757812 C 286.253906 133.132812 288.136719 136.015625 288.527344 138.929688 C 288.660156 139.9375 288.609375 140.886719 288.367188 141.746094 Z M 284.238281 131.050781 C 280.109375 128.703125 276.070312 129.027344 267.34375 135.1875 C 266.445312 135.824219 265.5 136.519531 264.496094 137.28125 C 250.28125 148.074219 247.777344 160.882812 249.78125 165 C 251.785156 169.121094 257.585938 166.925781 257.585938 166.925781 C 257.855469 166.789062 258.144531 166.605469 258.457031 166.386719 C 261.558594 164.195312 266.707031 158.25 270.242188 154.269531 C 270.765625 153.683594 271.390625 153.144531 272.09375 152.648438 C 276.132812 149.796875 282.683594 148.261719 286.378906 145.652344 C 286.828125 145.335938 287.234375 145.003906 287.589844 144.652344 C 291.375 140.890625 288.792969 133.640625 284.238281 131.050781 " fill-opacity="1" fill-rule="nonzero"/><path fill="#fcf8eb" d="M 282.171875 136.09375 C 282.847656 137.042969 282.050781 138.765625 280.394531 139.933594 C 278.742188 141.101562 276.851562 141.277344 276.179688 140.324219 C 275.507812 139.371094 276.300781 137.652344 277.957031 136.484375 C 279.613281 135.316406 281.5 135.140625 282.171875 136.09375 " fill-opacity="1" fill-rule="nonzero"/><path fill="#d06a47" d="M 280.597656 137.203125 C 280.917969 137.65625 280.539062 138.472656 279.753906 139.027344 C 278.96875 139.582031 278.074219 139.664062 277.753906 139.214844 C 277.433594 138.761719 277.8125 137.945312 278.597656 137.390625 C 279.382812 136.835938 280.28125 136.75 280.597656 137.203125 " fill-opacity="1" fill-rule="nonzero"/><path fill="#da9b1d" d="M 237.4375 182.320312 C 235.046875 185.453125 222.800781 185.621094 221.824219 184.472656 C 215.542969 177.078125 207.511719 129.609375 213.226562 124.910156 C 218.941406 120.207031 223.980469 126.335938 229.371094 137.574219 C 234.761719 148.816406 244.332031 173.285156 237.4375 182.320312 " fill-opacity="1" fill-rule="nonzero"/><path fill="#737861" d="M 228.398438 180.480469 C 228.398438 180.480469 228.980469 161.824219 228.925781 156.191406 C 228.871094 150.558594 227.664062 133.878906 228.453125 132.261719 C 229.242188 130.644531 243.625 160.390625 241.652344 170.269531 C 239.683594 180.144531 239.367188 182.140625 237.0625 184.628906 C 234.757812 187.117188 232.96875 185.203125 231.796875 188.320312 C 230.628906 191.441406 232.457031 193.492188 230.242188 193.972656 C 228.03125 194.453125 225.503906 192.011719 225.621094 191.394531 C 225.738281 190.773438 226.460938 189.6875 225.375 187.941406 C 224.292969 186.191406 219.394531 186.773438 218.277344 181.808594 C 217.164062 176.839844 208.382812 145.871094 210.726562 142.492188 C 213.070312 139.113281 228.398438 180.480469 228.398438 180.480469 " fill-opacity="1" fill-rule="nonzero"/><path fill="#737861" d="M 237.753906 174.167969 L 237.769531 169.742188 C 237.769531 169.742188 235.457031 167.433594 234.832031 161.839844 C 234.207031 156.246094 240.460938 138.695312 250.621094 135.164062 C 260.777344 131.632812 263.203125 145.484375 261.125 151.621094 C 259.042969 157.757812 241.207031 169.359375 241.207031 169.359375 L 240.71875 173.539062 L 237.753906 174.167969 " fill-opacity="1" fill-rule="nonzero"/><path fill="#899167" d="M 239.597656 173.0625 C 239.550781 173.082031 239.503906 173.097656 239.449219 173.101562 C 239.132812 173.144531 238.839844 172.921875 238.800781 172.605469 C 238.769531 172.394531 238.128906 167.351562 240.894531 161.53125 C 242.167969 158.851562 244.144531 155.457031 246.054688 152.175781 C 248.144531 148.585938 250.121094 145.191406 250.480469 143.859375 C 251.171875 141.3125 251.410156 139.292969 251.414062 139.273438 C 251.449219 138.957031 251.738281 138.730469 252.054688 138.765625 C 252.375 138.804688 252.601562 139.089844 252.5625 139.410156 C 252.554688 139.492188 252.3125 141.523438 251.601562 144.160156 C 251.203125 145.640625 249.28125 148.941406 247.058594 152.761719 C 245.160156 156.019531 243.195312 159.390625 241.941406 162.03125 C 239.332031 167.523438 239.941406 172.402344 239.949219 172.453125 C 239.984375 172.71875 239.832031 172.964844 239.597656 173.0625 " fill-opacity="1" fill-rule="nonzero"/><path fill="#899167" d="M 237.449219 154.164062 C 237.460938 154.183594 237.472656 154.199219 237.480469 154.207031 C 237.46875 154.195312 237.460938 154.179688 237.449219 154.164062 Z M 240.96875 163.03125 L 240.710938 162.355469 C 239.574219 159.421875 237.695312 154.632812 237.441406 154.15625 C 237.277344 153.914062 237.316406 153.585938 237.542969 153.390625 C 237.789062 153.183594 238.152344 153.210938 238.359375 153.453125 C 238.441406 153.542969 238.621094 153.753906 241.53125 161.261719 L 254.078125 152.882812 C 254.34375 152.703125 254.703125 152.773438 254.882812 153.042969 C 255.058594 153.308594 254.988281 153.667969 254.722656 153.84375 L 240.96875 163.03125 " fill-opacity="1" fill-rule="nonzero"/><path fill="#899167" d="M 245.78125 154.246094 L 242.734375 147.894531 C 242.59375 147.605469 242.714844 147.257812 243.003906 147.121094 C 243.292969 146.988281 243.640625 147.105469 243.777344 147.394531 L 246.25 152.546875 L 255.664062 146.296875 C 255.929688 146.121094 256.289062 146.195312 256.464844 146.460938 C 256.644531 146.726562 256.570312 147.085938 256.304688 147.265625 L 245.78125 154.246094 " fill-opacity="1" fill-rule="nonzero"/><path fill="#899167" d="M 250.292969 146.46875 L 246.8125 142.539062 C 246.601562 142.300781 246.621094 141.933594 246.863281 141.722656 C 247.101562 141.507812 247.46875 141.53125 247.679688 141.769531 L 250.421875 144.863281 L 257.722656 138.839844 C 257.96875 138.636719 258.335938 138.671875 258.539062 138.917969 C 258.742188 139.167969 258.707031 139.53125 258.457031 139.734375 L 250.292969 146.46875 " fill-opacity="1" fill-rule="nonzero"/><g clip-path="url(#1e0d68ca44)"><path fill="#d06a47" d="M 185.238281 166.933594 L 285.226562 153.816406 L 286.214844 161.347656 L 282.332031 161.859375 L 275.519531 205.527344 L 209.058594 214.246094 L 193.726562 175.339844 L 187.5625 176.148438 L 185.238281 166.933594 " fill-opacity="1" fill-rule="nonzero"/></g><path fill="#8a4f45" d="M 218.214844 209.003906 L 214.625 210.195312 C 214.488281 210.238281 214.34375 210.164062 214.296875 210.03125 L 202.949219 175.847656 C 202.902344 175.714844 202.976562 175.566406 203.113281 175.523438 L 206.703125 174.332031 C 206.835938 174.285156 206.984375 174.359375 207.03125 174.496094 L 218.378906 208.675781 C 218.421875 208.8125 218.351562 208.957031 218.214844 209.003906 " fill-opacity="1" fill-rule="nonzero"/><path fill="#8a4f45" d="M 229.8125 207.117188 L 226.09375 207.800781 C 225.953125 207.824219 225.816406 207.730469 225.792969 207.59375 L 219.292969 172.167969 C 219.265625 172.03125 219.359375 171.894531 219.5 171.867188 L 223.21875 171.1875 C 223.359375 171.160156 223.496094 171.253906 223.519531 171.394531 L 230.019531 206.816406 C 230.046875 206.957031 229.953125 207.09375 229.8125 207.117188 " fill-opacity="1" fill-rule="nonzero"/><path fill="#8a4f45" d="M 265.734375 202.769531 L 269.511719 202.996094 C 269.652344 203.003906 269.773438 202.894531 269.78125 202.75 L 271.921875 166.800781 C 271.933594 166.660156 271.824219 166.535156 271.679688 166.527344 L 267.90625 166.304688 C 267.761719 166.292969 267.640625 166.402344 267.632812 166.546875 L 265.492188 202.496094 C 265.480469 202.636719 265.59375 202.761719 265.734375 202.769531 " fill-opacity="1" fill-rule="nonzero"/><path fill="#8a4f45" d="M 254.039062 203.941406 L 257.8125 203.640625 C 257.953125 203.628906 258.058594 203.503906 258.050781 203.359375 L 255.183594 167.460938 C 255.171875 167.320312 255.046875 167.210938 254.90625 167.222656 L 251.136719 167.523438 C 250.992188 167.535156 250.886719 167.660156 250.898438 167.800781 L 253.761719 203.703125 C 253.773438 203.84375 253.898438 203.949219 254.039062 203.941406 " fill-opacity="1" fill-rule="nonzero"/><path fill="#8a4f45" d="M 243.066406 205.5 L 239.316406 205.992188 C 239.175781 206.011719 239.042969 205.910156 239.023438 205.769531 L 234.335938 170.0625 C 234.316406 169.921875 234.417969 169.789062 234.558594 169.773438 L 238.308594 169.28125 C 238.449219 169.261719 238.582031 169.363281 238.597656 169.503906 L 243.289062 205.210938 C 243.308594 205.351562 243.207031 205.480469 243.066406 205.5 " fill-opacity="1" fill-rule="nonzero"/><path fill="#8a4f45" d="M 210.4375 166.347656 L 187.609375 133.183594 L 192.148438 129.683594 L 215.074219 164.527344 L 210.4375 166.347656 " fill-opacity="1" fill-rule="nonzero"/><g clip-path="url(#ece5b5dbd0)"><path fill="#8a4f45" d="M 262.851562 159.472656 L 276.339844 121.542969 L 271.054688 119.332031 L 257.898438 158.910156 L 262.851562 159.472656 " fill-opacity="1" fill-rule="nonzero"/></g><path fill="#759850" d="M 215.894531 237.089844 C 215.894531 237.089844 218.425781 225.25 222.351562 222.921875 C 226.261719 220.609375 226.375 222.125 227.785156 221.316406 C 233.535156 217.980469 239.527344 209.890625 247.851562 213.339844 C 249.214844 209.234375 256.589844 211.332031 259.175781 213.1875 C 259.175781 213.1875 267.3125 210.8125 271.019531 214.578125 C 274.714844 218.332031 271.8125 221 271.8125 221 C 271.8125 221 273.90625 222.695312 270.539062 225.664062 C 267.171875 228.632812 259.027344 229.445312 258.078125 230.53125 C 257.132812 231.632812 253.007812 236.828125 247.082031 236.839844 C 241.167969 236.851562 241.519531 235.601562 239.425781 236.292969 C 237.320312 236.988281 230.964844 240.441406 215.894531 237.089844 " fill-opacity="1" fill-rule="evenodd"/><path fill="#ffc985" d="M 119.765625 108.101562 C 119.765625 108.101562 122.203125 92.429688 126.300781 87.398438 C 130.398438 82.378906 149.230469 75.378906 155.15625 78.273438 C 161.085938 81.15625 166.003906 90.863281 165.03125 96.234375 C 164.046875 101.59375 119.765625 108.101562 119.765625 108.101562 " fill-opacity="1" fill-rule="evenodd"/><path fill="#ffbc68" d="M 118.179688 133.824219 C 118.179688 133.824219 101.671875 132.761719 105.882812 118.453125 C 110.09375 104.148438 146.808594 84.808594 168.714844 89.535156 C 190.609375 94.25 181.175781 109.617188 171.742188 117.074219 C 162.304688 124.535156 124.574219 135.339844 118.179688 133.824219 " fill-opacity="1" fill-rule="evenodd"/><path fill="#6b301e" d="M 124.75 107.699219 C 124.75 107.699219 118.367188 118.65625 117.914062 122.613281 C 117.460938 126.570312 116.992188 132.496094 116.691406 136.300781 C 116.390625 140.105469 108.339844 146.046875 107.886719 150.609375 C 107.433594 155.1875 108.644531 159.445312 110.171875 159.902344 C 111.683594 160.355469 110.925781 165.839844 116.839844 169.328125 C 122.769531 172.832031 130.816406 169.949219 135.53125 167.054688 C 140.238281 164.160156 142.355469 155.792969 142.355469 155.792969 L 144.789062 139.953125 L 145.242188 126.253906 L 148.28125 98.105469 C 148.28125 98.105469 130.363281 99.320312 124.75 107.699219 " fill-opacity="1" fill-rule="evenodd"/><path fill="#6b301e" d="M 148.28125 98.105469 C 148.28125 98.105469 164.992188 94.453125 170 100.695312 C 175.007812 106.925781 170.453125 116.066406 172.433594 119.414062 C 174.402344 122.765625 176.835938 122.144531 176.984375 127.023438 C 177.140625 131.890625 173.949219 133.117188 176.835938 136.453125 C 179.722656 139.804688 185.636719 150.003906 179.722656 155.1875 C 173.796875 160.355469 166.808594 161.265625 158.15625 158.371094 C 149.492188 155.488281 141.144531 110.429688 148.28125 98.105469 " fill-opacity="1" fill-rule="evenodd"/><path fill="#fe9365" d="M 132.417969 171.769531 C 132.417969 171.769531 136.453125 169.0625 137.398438 165.511719 C 138.332031 161.949219 138.785156 145.289062 138.875 143.683594 C 138.949219 142.089844 161.121094 145.742188 161.121094 145.742188 C 161.121094 145.742188 160.972656 162.945312 162.785156 165.222656 C 164.617188 167.511719 169.46875 169.027344 169.46875 169.027344 C 169.46875 169.027344 158.839844 191.410156 132.417969 171.769531 " fill-opacity="1" fill-rule="evenodd"/><path fill="#fe845b" d="M 138.246094 157.585938 C 138.625 151.660156 138.824219 144.695312 138.875 143.683594 C 138.949219 142.089844 161.121094 145.742188 161.121094 145.742188 C 161.121094 145.742188 161.058594 151.875 161.410156 157.308594 C 154.007812 159.875 143.679688 160.101562 138.246094 157.585938 " fill-opacity="1" fill-rule="evenodd"/><path fill="#fe9365" d="M 146.277344 100.253906 C 146.277344 100.253906 158.5625 99.101562 163.503906 105.648438 C 168.449219 112.210938 165.183594 118.84375 167.210938 124.683594 C 169.246094 130.527344 168.523438 141.710938 163.492188 147.726562 C 158.460938 153.746094 149.011719 154.175781 142.921875 151.433594 C 136.832031 148.6875 136.566406 140.523438 133.390625 133.003906 C 130.210938 125.480469 138.246094 102.996094 146.277344 100.253906 " fill-opacity="1" fill-rule="evenodd"/><path fill="#ce7752" d="M 152.8125 124.230469 C 150.945312 125.304688 151.761719 131.738281 151.511719 133.863281 C 151.398438 134.773438 149.796875 135.316406 149.214844 135.339844 C 149.660156 137.289062 154.007812 137.300781 154.738281 135.074219 C 154.917969 134.542969 154.222656 133.875 153.769531 131.535156 C 153.289062 129.035156 153.050781 124.851562 152.8125 124.230469 " fill-opacity="1" fill-rule="evenodd"/><path fill="#6b301e" d="M 169.316406 117.695312 C 169.316406 117.695312 167.4375 115.863281 164.601562 115.292969 C 161.777344 114.738281 156.011719 115.886719 156.039062 118 C 156.066406 120.109375 160.328125 118.035156 164.070312 117.875 C 167.804688 117.71875 168.675781 118.566406 169.128906 118.402344 C 169.59375 118.25 169.316406 117.695312 169.316406 117.695312 " fill-opacity="1" fill-rule="evenodd"/><path fill="#6b301e" d="M 133.097656 118.46875 C 133.097656 118.46875 135.039062 116.417969 138.03125 115.699219 C 141.019531 114.964844 147.222656 115.9375 147.289062 118.199219 C 147.347656 120.453125 142.707031 118.414062 138.710938 118.414062 C 134.726562 118.414062 133.84375 119.363281 133.339844 119.214844 C 132.835938 119.058594 133.097656 118.46875 133.097656 118.46875 " fill-opacity="1" fill-rule="evenodd"/><path fill="#ce7752" d="M 146.328125 142.507812 C 146.027344 142.230469 146.015625 141.75 146.289062 141.445312 C 146.566406 141.144531 147.046875 141.128906 147.347656 141.40625 L 147.402344 141.460938 C 148.925781 142.863281 151.09375 143.316406 153.136719 143.152344 C 155.195312 142.988281 157.097656 142.21875 158.070312 141.167969 L 158.09375 141.144531 C 158.382812 140.839844 158.851562 140.8125 159.164062 141.105469 C 159.46875 141.382812 159.480469 141.863281 159.207031 142.167969 L 159.164062 142.191406 C 157.945312 143.492188 155.671875 144.453125 153.265625 144.644531 C 150.84375 144.847656 148.246094 144.277344 146.378906 142.558594 L 146.328125 142.507812 " fill-opacity="1" fill-rule="evenodd"/><path fill="#6b301e" d="M 135.621094 123.929688 C 135.621094 123.929688 137.867188 125.355469 140.980469 125.15625 C 144.09375 124.964844 146.152344 123.953125 146.78125 124.207031 C 146.945312 124.269531 146.820312 125.191406 146.089844 125.746094 C 144.753906 126.757812 141.699219 127.628906 139.214844 127.023438 C 137.742188 126.65625 136.730469 125.898438 135.621094 123.929688 Z M 168.488281 123.054688 C 168.488281 123.054688 166.28125 124.585938 163.140625 124.535156 C 159.988281 124.46875 157.867188 123.535156 157.238281 123.816406 C 157.074219 123.890625 157.25 124.824219 158.007812 125.34375 C 159.40625 126.304688 162.507812 127.050781 164.992188 126.328125 C 166.46875 125.886719 167.453125 125.089844 168.488281 123.054688 " fill-opacity="1" fill-rule="evenodd"/><g clip-path="url(#6c4a475cbe)"><path fill="#ffdbcd" d="M 75.765625 242.703125 C 75.765625 242.703125 84.417969 231.746094 85.945312 223.984375 C 87.457031 216.210938 92.476562 194.746094 100.070312 186.230469 C 107.660156 177.707031 128.773438 172.90625 130.511719 171.769531 C 132.265625 170.632812 132.34375 170.402344 132.34375 170.402344 C 132.34375 170.402344 141.296875 180.90625 153.679688 178.695312 C 166.050781 176.484375 168.261719 167.660156 168.261719 167.660156 C 168.261719 167.660156 189.75 179.984375 194.757812 182.421875 C 199.765625 184.863281 208.125 189.578125 210.242188 195.367188 C 212.375 201.144531 215.71875 237.824219 215.71875 237.824219 L 163.769531 264.011719 L 107.433594 254.421875 C 107.433594 254.421875 83.585938 253.207031 75.765625 242.703125 " fill-opacity="1" fill-rule="evenodd"/></g><path fill="#343255" d="M 118.253906 248.960938 C 118.253906 248.960938 124.257812 220.164062 120.878906 202.054688 C 117.511719 183.953125 111.710938 178.835938 111.710938 178.835938 C 111.710938 178.835938 117.359375 175.230469 118.203125 175.308594 C 124.863281 175.914062 130.285156 192.699219 132.46875 205.679688 C 133.855469 213.949219 132.972656 220.535156 133.375 220.863281 C 134.484375 221.769531 167.113281 218.269531 173.027344 215.527344 C 178.929688 212.785156 181.464844 196.554688 179.359375 184.636719 C 177.25 172.714844 173.292969 170.53125 173.292969 170.53125 C 175.800781 171.011719 181.4375 172.792969 183.066406 174.550781 C 188.855469 180.867188 186.699219 206.894531 186.027344 214.542969 C 184.59375 230.972656 182.800781 234.019531 182.800781 234.019531 L 172.925781 249.085938 L 118.253906 248.960938 " fill-opacity="1" fill-rule="evenodd"/><path fill="#5f3d3d" d="M 113.070312 250.511719 C 113.070312 250.511719 106.878906 244.714844 122.089844 239.960938 C 137.296875 235.207031 245.972656 233.730469 246.992188 250.566406 C 248.003906 267.402344 178.980469 277.675781 174.425781 277.675781 C 170.53125 277.675781 129.804688 263.496094 115.53125 254.761719 C 113.082031 253.269531 113.726562 251.398438 113.070312 250.511719 " fill-opacity="1" fill-rule="evenodd"/><path stroke-linecap="butt" transform="matrix(0.0507903, 0, 0, -0.0509038, 75.766513, 312.928897)" fill="none" stroke-linejoin="miter" d="M 734.467207 1226.178538 C 734.467207 1226.178538 612.565821 1340.057503 912.050992 1433.447464 C 1211.459254 1526.837424 3351.155439 1555.844331 3371.22879 1225.104208 C 3391.148323 894.364085 2032.159372 692.543546 1942.483022 692.543546 C 1865.804358 692.543546 1063.947041 971.101933 782.920124 1142.68776 C 734.697935 1172.001617 747.387985 1208.759046 734.467207 1226.178538 Z M 734.467207 1226.178538 " stroke="#000000" stroke-width="5.669" stroke-opacity="1" stroke-miterlimit="10"/><path fill="#77a429" d="M 181.90625 234.523438 C 181.90625 234.523438 173.496094 221.089844 177.214844 213.554688 C 180.933594 206.023438 183.292969 208.753906 183.292969 208.753906 C 183.292969 208.753906 181.3125 198.414062 186.167969 194.292969 C 191.035156 190.183594 193.382812 192.699219 193.382812 192.699219 C 193.382812 192.699219 198.628906 182.121094 204.707031 183.648438 C 210.773438 185.167969 207.128906 204.417969 205.234375 207.917969 C 203.332031 211.421875 202.5 211.722656 202.5 211.722656 C 202.5 211.722656 209.863281 207.917969 207.960938 215.90625 C 206.070312 223.90625 192.246094 241.628906 190.808594 244.597656 C 189.359375 247.570312 188.074219 248.480469 188.074219 248.480469 L 181.90625 234.523438 " fill-opacity="1" fill-rule="evenodd"/><path fill="#668d3b" d="M 186.445312 243.992188 C 187.882812 239.644531 189.09375 233.375 190.203125 228.800781 C 191.917969 221.683594 197.480469 197.578125 202.347656 193.003906 C 202.035156 193.710938 201.871094 194.191406 201.589844 194.847656 C 197.417969 204.785156 194.703125 218.648438 192.488281 229.320312 C 191.652344 233.300781 190.191406 241.996094 188.789062 245.523438 L 186.445312 243.992188 " fill-opacity="1" fill-rule="evenodd"/><path fill="#db9150" d="M 118.480469 252.664062 C 118.480469 252.664062 116.351562 234.867188 125.46875 231.519531 C 134.574219 228.167969 137.460938 228.925781 137.460938 228.925781 C 137.460938 228.925781 139.441406 224.515625 146.730469 224.515625 C 154.019531 224.515625 155.988281 226.03125 155.988281 226.03125 C 155.988281 226.03125 161.007812 220.253906 169.203125 222.378906 C 177.402344 224.515625 190.320312 236.382812 186.824219 260.285156 C 183.332031 284.171875 163.390625 284.402344 163.390625 284.402344 C 163.390625 284.402344 123.488281 268.804688 118.480469 252.664062 " fill-opacity="1" fill-rule="evenodd"/><path fill="#c58348" d="M 160.617188 222.894531 C 162.796875 222 165.714844 221.46875 169.203125 222.378906 C 176.582031 224.300781 187.792969 234.121094 187.390625 253.511719 C 184.980469 254.570312 180.582031 255.53125 180.582031 255.53125 C 180.582031 255.53125 179.988281 241.894531 174.867188 231.503906 C 169.761719 221.164062 160.707031 222.882812 160.617188 222.894531 " fill-opacity="1" fill-rule="evenodd"/><path fill="#9f3b58" d="M 172.847656 266.136719 C 172.847656 266.136719 177.402344 264.46875 178.765625 258.527344 C 180.136719 252.585938 179.230469 245.976562 185.144531 241.855469 C 191.074219 237.746094 199.121094 240.566406 202.160156 239.808594 C 205.199219 239.050781 206.105469 237.445312 206.105469 237.445312 L 208.917969 239.503906 C 208.917969 239.503906 206.636719 242.929688 207.394531 245.824219 C 208.164062 248.707031 211.566406 258.378906 206.332031 264.390625 C 201.101562 270.398438 186.445312 266.0625 181.199219 266.894531 C 175.964844 267.742188 173.078125 268.878906 173.078125 268.878906 L 172.847656 266.136719 " fill-opacity="1" fill-rule="evenodd"/><path fill="#f4821b" d="M 233.4375 238.445312 C 233.4375 238.445312 242.304688 229.976562 247.03125 230.289062 C 251.761719 230.617188 256.378906 235.472656 256.074219 240.113281 C 255.769531 244.75 239.136719 256.554688 229.953125 258.980469 C 220.761719 261.425781 214.457031 264.089844 214.078125 261.652344 C 213.699219 259.210938 233.4375 238.445312 233.4375 238.445312 " fill-opacity="1" fill-rule="evenodd"/><path fill="#c58348" d="M 135.660156 235.613281 C 135.660156 235.613281 129.035156 245.597656 128.40625 253.761719 C 127.777344 261.914062 130.109375 263.457031 130.738281 263.570312 C 131.371094 263.683594 137.511719 229.558594 135.660156 235.613281 " fill-opacity="1" fill-rule="evenodd"/><path fill="#e2a65a" d="M 141.722656 236.773438 C 144.714844 236.773438 147.476562 238.660156 149.304688 243.007812 C 147.402344 246.972656 146.214844 252.636719 146.214844 258.910156 C 146.214844 264.863281 147.289062 270.257812 149.027344 274.191406 C 147.261719 278.488281 144.699219 280.34375 141.722656 280.34375 C 136.339844 280.34375 131.976562 270.597656 131.976562 258.566406 C 131.976562 246.53125 136.339844 236.773438 141.722656 236.773438 " fill-opacity="1" fill-rule="evenodd"/><path fill="#c58348" d="M 166.542969 229.910156 C 166.542969 229.910156 177.25 238.695312 178.625 251.941406 C 179.988281 265.175781 175.207031 272.480469 173.605469 270.777344 C 172.019531 269.058594 167.90625 234.828125 166.542969 229.910156 " fill-opacity="1" fill-rule="evenodd"/><path fill="#e2a65a" d="M 162.585938 232.679688 C 167.957031 232.25 173.050781 238.53125 173.871094 255.632812 C 174.691406 272.746094 171.070312 279.710938 165.714844 280.128906 C 160.339844 280.558594 155.28125 270.269531 154.425781 257.164062 C 153.554688 244.066406 157.210938 233.097656 162.585938 232.679688 " fill-opacity="1" fill-rule="evenodd"/><path fill="#c58348" d="M 153.566406 239.605469 C 153.566406 239.605469 152.421875 256.507812 155.042969 267.007812 C 157.664062 277.511719 158.121094 278.535156 156.644531 277.742188 C 155.15625 276.945312 149.921875 266.210938 150.261719 254.914062 C 150.601562 243.597656 153.566406 239.605469 153.566406 239.605469 " fill-opacity="1" fill-rule="evenodd"/><path fill="#c15230" d="M 142.089844 229.382812 C 142.089844 229.382812 143.769531 222.453125 141.9375 217.738281 C 140.125 213.027344 136.855469 210.964844 135.570312 210.964844 C 134.269531 210.964844 133.4375 211.570312 133.4375 211.570312 C 133.4375 211.570312 134.347656 209.449219 136.480469 208.601562 C 138.597656 207.769531 141.410156 208.601562 145.582031 213.175781 C 149.757812 217.738281 149.984375 221.46875 152.644531 223.210938 C 155.308594 224.96875 157.890625 224.664062 158.5 225.726562 C 159.105469 226.789062 157.515625 230.289062 150.980469 231.214844 C 144.449219 232.125 141.710938 230.289062 142.089844 229.382812 " fill-opacity="1" fill-rule="evenodd"/><path fill="#f69a47" d="M 194.164062 267.605469 C 194.164062 267.605469 196.15625 260.207031 206.9375 250.769531 C 217.722656 241.324219 226.574219 231.417969 233.058594 233.71875 C 239.539062 236.03125 238.984375 244.371094 235.039062 249.25 C 231.089844 254.117188 204.050781 268.578125 199.042969 268.878906 C 194.039062 269.183594 194.164062 267.605469 194.164062 267.605469 " fill-opacity="1" fill-rule="evenodd"/><path fill="#b6dd4e" d="M 241.304688 222.757812 C 243.613281 220.914062 247.773438 219.660156 249.894531 218.597656 C 257.789062 214.640625 253.085938 220.050781 251.179688 221.496094 C 250.308594 222.164062 245.289062 224.488281 241.320312 227.585938 C 236.613281 231.277344 232.90625 235.777344 232.578125 236.179688 C 229.839844 239.605469 231.820312 230.328125 241.304688 222.757812 " fill-opacity="1" fill-rule="evenodd"/><path fill="#b6dd4e" d="M 251.355469 231.363281 C 251.355469 231.363281 256.828125 220.480469 267.539062 213.554688 C 278.246094 206.628906 280.832031 207.769531 280.515625 208.980469 C 280.214844 210.207031 251.824219 233.71875 251.207031 233.488281 C 250.601562 233.261719 251.355469 231.363281 251.355469 231.363281 " fill-opacity="1" fill-rule="evenodd"/><path fill="#b6dd4e" d="M 252.65625 231.894531 C 252.65625 231.894531 264.273438 221.542969 271.710938 218.421875 C 279.152344 215.300781 280.214844 216.980469 279.835938 217.738281 C 279.457031 218.496094 254.246094 234.324219 253.339844 234.171875 C 252.429688 234.019531 252.65625 231.894531 252.65625 231.894531 " fill-opacity="1" fill-rule="evenodd"/><g clip-path="url(#8b1648b630)"><path fill="#b6dd4e" d="M 254.167969 235.015625 C 254.167969 235.015625 259.039062 229.609375 268.671875 226.183594 C 278.320312 222.757812 281.210938 223.59375 281.132812 224.589844 C 281.054688 225.578125 255.230469 236.535156 254.546875 236.460938 C 253.867188 236.382812 254.167969 235.015625 254.167969 235.015625 " fill-opacity="1" fill-rule="evenodd"/></g><path fill="#b6dd4e" d="M 234.859375 237.152344 C 234.859375 237.152344 245.101562 231.289062 247.222656 231.746094 C 249.351562 232.199219 237.003906 238.671875 235.871094 238.59375 C 234.734375 238.519531 234.859375 237.152344 234.859375 237.152344 " fill-opacity="1" fill-rule="evenodd"/><path fill="#668c3d" d="M 210.015625 229.683594 C 210.015625 229.683594 207.429688 214.390625 209.183594 210.660156 C 210.925781 206.933594 213.207031 205.871094 213.207031 205.871094 C 213.207031 205.871094 213.207031 201.21875 215.25 199.324219 C 217.308594 197.414062 218.742188 197.792969 218.742188 197.792969 C 218.742188 197.792969 220.722656 191.636719 227.332031 188.820312 C 233.941406 186 238.492188 185.015625 239.933594 190.867188 C 241.382812 196.730469 226.800781 218.121094 223.535156 220.9375 C 220.269531 223.757812 210.015625 229.683594 210.015625 229.683594 " fill-opacity="1" fill-rule="evenodd"/><path fill="#5c7e37" d="M 239.363281 189.210938 C 239.589844 189.691406 239.78125 190.246094 239.933594 190.867188 C 241.382812 196.730469 226.800781 218.121094 223.535156 220.9375 C 221.0625 223.0625 214.605469 226.964844 211.605469 228.761719 C 211.605469 228.746094 213.472656 211.535156 227.144531 198.515625 C 232.035156 193.851562 236.121094 190.980469 239.363281 189.210938 " fill-opacity="1" fill-rule="evenodd"/><path fill="#668c3d" d="M 219.109375 230.101562 C 219.109375 230.101562 216.929688 218.195312 219.664062 214.542969 C 222.386719 210.886719 223.082031 212.253906 224.066406 210.964844 C 228.101562 205.667969 230.546875 195.898438 239.554688 195.898438 C 239.238281 191.574219 246.855469 190.675781 249.957031 191.410156 C 249.957031 191.410156 256.566406 186.078125 261.421875 188.136719 C 266.289062 190.183594 264.609375 193.761719 264.609375 193.761719 C 264.609375 193.761719 267.199219 194.519531 265.21875 198.566406 C 263.25 202.597656 256.035156 206.476562 255.582031 207.84375 C 255.117188 209.21875 253.296875 215.605469 247.828125 217.890625 C 242.363281 220.179688 242.214844 218.878906 240.535156 220.332031 C 238.871094 221.769531 234.320312 227.410156 219.109375 230.101562 " fill-opacity="1" fill-rule="evenodd"/><path fill="#9f3b58" d="M 204.074219 240.097656 C 205.261719 238.015625 206.535156 236.8125 207.632812 234.738281 C 211.695312 226.488281 217.003906 208.628906 221.113281 203.949219 C 222.289062 202.609375 222.804688 202.496094 224.441406 201.523438 C 223.824219 202.167969 222.375 203.632812 221.78125 204.46875 C 215.375 213.59375 215.351562 229.003906 207 240.492188 L 206.851562 240.429688 L 204.074219 240.097656 " fill-opacity="1" fill-rule="evenodd"/><g clip-path="url(#e67a3e647a)"><path fill="#835353" d="M 107.167969 276.792969 C 107.167969 276.792969 109.589844 286.6875 117.800781 295.664062 C 126 304.648438 132.835938 306.773438 150.453125 310.277344 C 168.070312 313.777344 198.136719 314.851562 221.519531 306.925781 C 244.910156 299.011719 247.183594 286.839844 249.316406 281.050781 C 251.445312 275.273438 249.769531 249.085938 249.769531 249.085938 C 249.769531 249.085938 217.875 267.351562 181.578125 266.136719 C 163.667969 265.542969 144.09375 263.851562 131.257812 259.566406 C 118.078125 255.167969 111.875 248.175781 111.875 248.175781 C 111.875 248.175781 106.097656 253.359375 107.167969 276.792969 " fill-opacity="1" fill-rule="evenodd"/></g><path fill="#fe9365" d="M 87.027344 248.820312 C 87.253906 252.765625 87.960938 260.019531 90.269531 265.910156 C 93.613281 274.429688 118.21875 286.765625 129.90625 292.085938 C 141.597656 297.421875 143.578125 297.421875 143.578125 297.421875 C 143.578125 297.421875 150.878906 285.703125 149.367188 285.097656 C 148.675781 284.820312 139.089844 281.101562 131.144531 275.023438 C 121.421875 267.566406 110.675781 258.515625 109.25 257.847656 C 108.230469 257.367188 107.738281 256.253906 107.511719 255.101562 C 106.285156 248.933594 86.699219 242.96875 87.027344 248.820312 " fill-opacity="1" fill-rule="evenodd"/><path fill="#fe9365" d="M 145.445312 284.933594 C 145.445312 284.933594 150.199219 285.449219 153.25 284.679688 C 156.316406 283.910156 159.972656 282.289062 163.707031 282.972656 C 167.4375 283.65625 172.875 286.121094 173.554688 286.121094 C 174.238281 286.121094 172.28125 288.511719 170.253906 288.6875 C 168.8125 288.800781 164.023438 288.039062 160.628906 287.8125 C 160.136719 288.433594 159.480469 289.496094 160.046875 290.304688 C 160.90625 291.492188 167.617188 293.109375 171.136719 293.703125 C 174.667969 294.296875 181.375 294.601562 181.714844 294.640625 C 182.058594 294.679688 182.347656 296.21875 179.632812 297.027344 C 176.910156 297.839844 172.066406 297.710938 169.144531 297.496094 C 166.21875 297.28125 160.730469 295.539062 160.945312 295.917969 C 161.160156 296.296875 168.964844 298.128906 173.179688 298.683594 C 177.378906 299.238281 178.398438 298.988281 178.703125 299.238281 C 178.992188 299.492188 178.777344 300.984375 175.296875 301.707031 C 171.816406 302.425781 163.617188 301.148438 160.441406 300.644531 C 157.25 300.136719 158.359375 301.023438 159.332031 301.582031 C 160.300781 302.136719 165.445312 303.96875 168.714844 304.816406 C 171.992188 305.660156 173.519531 305.660156 173.949219 306.179688 C 174.363281 306.6875 172.371094 308.265625 169.394531 308.265625 C 166.417969 308.265625 155.257812 305.371094 154.792969 304.472656 C 154.324219 303.578125 161.914062 309.289062 162.9375 309.160156 C 163.960938 309.023438 161.878906 311.035156 156.65625 309.363281 C 151.4375 307.707031 148.621094 304.6875 145.785156 302.136719 C 142.933594 299.582031 139.621094 296.09375 139.621094 296.09375 L 145.144531 285.488281 L 145.46875 285.527344 C 145.433594 285.335938 145.421875 285.148438 145.445312 284.933594 " fill-opacity="1" fill-rule="evenodd"/><path fill="#9f3b58" d="M 205.464844 239.628906 C 210.496094 238.621094 221.695312 224.867188 225.90625 220.242188 C 232.164062 213.40625 243.171875 201.851562 252 199.019531 L 253.90625 198.566406 L 252.1875 199.460938 C 238.847656 206.515625 228.96875 220.089844 219.199219 231.304688 C 215.832031 235.15625 210.949219 241.273438 205.753906 242.425781 L 205.464844 239.628906 " fill-opacity="1" fill-rule="evenodd"/><path fill="#b6dd4e" d="M 234.40625 234.613281 C 234.40625 234.613281 239.277344 229.214844 248.910156 225.792969 C 258.558594 222.363281 261.445312 223.199219 261.371094 224.1875 C 261.296875 225.171875 235.480469 236.132812 234.785156 236.054688 C 234.105469 235.980469 234.40625 234.613281 234.40625 234.613281 " fill-opacity="1" fill-rule="evenodd"/><path fill="#835353" d="M 210.28125 263.445312 C 210.28125 263.445312 216.132812 254.191406 219.171875 248.023438 C 222.199219 241.855469 227.292969 234.476562 236.246094 235.320312 C 245.214844 236.15625 248.027344 244.296875 247.484375 249.476562 C 246.957031 254.648438 245.140625 254.722656 245.140625 254.722656 C 245.140625 254.722656 243.386719 254.800781 243.460938 254.191406 C 243.539062 253.585938 246.878906 246.660156 242.78125 242.324219 C 238.34375 237.621094 229.550781 241.210938 225.605469 249.277344 C 222.339844 255.925781 220.421875 262.585938 218.808594 263.394531 C 215.011719 265.304688 209.917969 263.519531 209.917969 263.519531 L 210.28125 263.445312 " fill-opacity="1" fill-rule="evenodd"/><path fill="#764b4b" d="M 206.007812 269.828125 C 206.546875 269.648438 209.257812 270.296875 212.007812 269.765625 C 215.226562 269.132812 218.503906 267.3125 218.640625 267.3125 C 219.058594 268.777344 214.632812 276.375 206.007812 269.828125 " fill-opacity="1" fill-rule="evenodd"/><path fill="#764b4b" d="M 217.722656 274.746094 C 218.265625 274.566406 220.976562 275.226562 223.726562 274.683594 C 226.953125 274.050781 230.21875 272.230469 230.359375 272.230469 C 230.777344 273.695312 226.347656 281.292969 217.722656 274.746094 " fill-opacity="1" fill-rule="evenodd"/><path fill="#764b4b" d="M 203.914062 279.105469 C 204.453125 278.929688 207.179688 279.570312 209.917969 279.042969 C 213.144531 278.410156 216.410156 276.589844 216.550781 276.589844 C 216.964844 278.058594 212.539062 285.652344 203.914062 279.105469 " fill-opacity="1" fill-rule="evenodd"/><path fill="#764b4b" d="M 218.71875 281.152344 C 219.261719 280.976562 221.984375 281.632812 224.722656 281.089844 C 227.949219 280.457031 231.214844 278.636719 231.355469 278.636719 C 231.773438 280.101562 227.34375 287.699219 218.71875 281.152344 " fill-opacity="1" fill-rule="evenodd"/><path fill="#764b4b" d="M 209.484375 288.914062 C 210.03125 288.738281 212.753906 289.394531 215.503906 288.851562 C 218.71875 288.21875 221.996094 286.414062 222.136719 286.414062 C 222.550781 287.863281 218.113281 295.472656 209.484375 288.914062 " fill-opacity="1" fill-rule="evenodd"/><path fill="#764b4b" d="M 220.082031 288.6875 C 220.621094 288.511719 223.347656 289.167969 226.097656 288.625 C 229.3125 287.992188 232.589844 286.171875 232.730469 286.183594 C 233.148438 287.636719 228.707031 295.234375 220.082031 288.6875 " fill-opacity="1" fill-rule="evenodd"/><path fill="#764b4b" d="M 212.679688 297.710938 C 213.21875 297.535156 215.945312 298.179688 218.695312 297.648438 C 221.910156 297.015625 225.1875 295.199219 225.328125 295.199219 C 225.742188 296.660156 221.304688 304.257812 212.679688 297.710938 " fill-opacity="1" fill-rule="evenodd"/><path fill="#764b4b" d="M 220.421875 267.804688 C 220.976562 267.628906 223.6875 268.285156 226.4375 267.742188 C 229.652344 267.109375 232.929688 265.292969 233.070312 265.304688 C 233.484375 266.757812 229.058594 274.351562 220.421875 267.804688 " fill-opacity="1" fill-rule="evenodd"/><path fill="#764b4b" d="M 232.164062 288.6875 C 232.703125 288.511719 235.417969 289.167969 238.164062 288.625 C 241.382812 287.992188 244.660156 286.171875 244.800781 286.183594 C 245.214844 287.636719 240.789062 295.234375 232.164062 288.6875 " fill-opacity="1" fill-rule="evenodd"/><path fill="#764b4b" d="M 229.640625 281.621094 C 230.183594 281.445312 232.90625 282.085938 235.644531 281.558594 C 238.871094 280.925781 242.136719 279.105469 242.277344 279.105469 C 242.695312 280.570312 238.265625 288.167969 229.640625 281.621094 " fill-opacity="1" fill-rule="evenodd"/><path fill="#fe9365" d="M 249.238281 257.808594 C 249.238281 257.808594 246.425781 261.539062 241.722656 263.976562 C 237.019531 266.402344 232.90625 268.691406 232.832031 269.183594 C 232.757812 269.675781 233.675781 270.929688 235.417969 271.042969 C 237.167969 271.167969 245.140625 266.628906 245.214844 267.046875 C 245.289062 267.464844 232.980469 273.707031 232.980469 273.707031 C 232.980469 273.707031 228.808594 275.273438 228.429688 275.769531 C 228.050781 276.261719 229.261719 278.195312 233.207031 278.195312 C 237.167969 278.195312 247.5625 271.433594 247.714844 271.964844 C 247.875 272.496094 233.207031 281.316406 232.453125 281.695312 C 231.695312 282.085938 232.832031 284.136719 237.242188 283.226562 C 241.644531 282.316406 249.011719 275.386719 249.390625 276.074219 C 249.769531 276.753906 240.046875 284.820312 240.195312 285.273438 C 240.347656 285.742188 245.367188 286.425781 250.828125 281.695312 C 256.300781 276.980469 257.359375 271.433594 258.039062 267.628906 C 258.734375 263.8125 256.679688 254.839844 255.621094 254.308594 C 254.546875 253.773438 249.238281 257.808594 249.238281 257.808594 " fill-opacity="1" fill-rule="evenodd"/><path fill="#fe9365" d="M 248.921875 258.1875 C 248.921875 258.1875 249.84375 256.203125 249.203125 255.027344 C 248.558594 253.851562 246.539062 251.640625 246.691406 247.644531 C 246.84375 243.652344 248.519531 241.667969 249.164062 241.96875 C 249.804688 242.285156 251.28125 248.746094 252.882812 250.957031 C 254.472656 253.167969 255.355469 253.21875 255.972656 254.722656 C 256.589844 256.238281 251.445312 258.910156 251.445312 258.910156 L 248.921875 258.1875 " fill-opacity="1" fill-rule="evenodd"/><path fill="#5f3d3d" d="M 110.800781 248.933594 C 110.359375 248.226562 110.5625 247.292969 111.269531 246.835938 C 111.972656 246.394531 112.921875 246.597656 113.359375 247.316406 C 113.816406 248.023438 114.296875 248.695312 114.789062 249.3125 C 125.824219 263.304688 153.203125 267.109375 180.292969 265.910156 C 207.53125 264.695312 234.320312 258.402344 244.015625 252.234375 C 244.558594 251.890625 245.011719 251.574219 245.378906 251.273438 C 246.035156 250.757812 246.992188 250.871094 247.511719 251.527344 C 248.027344 252.183594 247.914062 253.132812 247.257812 253.648438 C 246.753906 254.054688 246.210938 254.445312 245.644531 254.800781 C 235.59375 261.195312 208.164062 267.707031 180.417969 268.945312 C 152.519531 270.179688 124.15625 266.085938 112.402344 251.199219 C 111.808594 250.4375 111.28125 249.695312 110.800781 248.933594 " fill-opacity="1" fill-rule="evenodd"/><path fill="#eecb9e" d="M 134.484375 252.28125 C 134.535156 251.714844 135.054688 244.296875 137.902344 243.257812 C 140.753906 242.234375 134.484375 252.28125 134.484375 252.28125 " fill-opacity="1" fill-rule="evenodd"/><path fill="#eecb9e" d="M 122.527344 244.660156 C 122.59375 244.09375 123.097656 236.675781 125.949219 235.636719 C 128.796875 234.613281 122.527344 244.660156 122.527344 244.660156 " fill-opacity="1" fill-rule="evenodd"/><path fill="#764b4b" d="M 141.109375 271.597656 C 141.675781 271.585938 144.070312 273.027344 146.84375 273.339844 C 150.113281 273.707031 153.78125 272.960938 153.90625 273 C 153.871094 274.519531 147.375 280.433594 141.109375 271.597656 " fill-opacity="1" fill-rule="evenodd"/><path fill="#764b4b" d="M 162.734375 273.101562 C 163.304688 273.101562 165.714844 274.542969 168.488281 274.859375 C 171.753906 275.226562 175.421875 274.464844 175.550781 274.519531 C 175.511719 276.035156 169.003906 281.949219 162.734375 273.101562 " fill-opacity="1" fill-rule="evenodd"/><path fill="#764b4b" d="M 153.628906 277.90625 C 154.199219 277.890625 156.59375 279.332031 159.382812 279.648438 C 162.632812 280.015625 166.304688 279.269531 166.441406 279.308594 C 166.394531 280.824219 159.898438 286.742188 153.628906 277.90625 " fill-opacity="1" fill-rule="evenodd"/><path fill="#a94f69" d="M 182.839844 258.363281 C 182.839844 258.363281 182.789062 247.417969 187.164062 244.660156 C 191.527344 241.917969 196.988281 242.691406 197.757812 244.207031 C 198.515625 245.722656 189.671875 249 182.839844 258.363281 " fill-opacity="1" fill-rule="evenodd"/><path fill="#b26178" d="M 184.605469 253.878906 C 184.652344 253.308594 185.171875 245.886719 188.019531 244.863281 C 190.859375 243.828125 184.605469 253.878906 184.605469 253.878906 " fill-opacity="1" fill-rule="evenodd"/><path fill="#b6dd4e" d="M 260.476562 212.328125 C 262.519531 209.410156 266.933594 206.542969 269.027344 204.59375 C 276.820312 197.316406 273.214844 205.175781 271.496094 207.5 C 270.714844 208.5625 265.683594 212.988281 262.140625 217.929688 C 257.941406 223.808594 255.179688 230.289062 254.9375 230.871094 C 252.933594 235.777344 252.0625 224.351562 260.476562 212.328125 " fill-opacity="1" fill-rule="evenodd"/><path fill="#6b301e" d="M 143.566406 101 C 143.566406 101 150.175781 101.113281 153.933594 105.21875 C 157.691406 109.328125 158.714844 112.527344 163.847656 113.4375 C 168.964844 114.359375 170.667969 107.960938 170.328125 107.28125 C 169.988281 106.597656 164.640625 100.203125 163.617188 100.089844 C 162.585938 99.976562 154.160156 98.597656 151.195312 98.597656 C 148.230469 98.597656 143.566406 101 143.566406 101 " fill-opacity="1" fill-rule="evenodd"/></svg>