<svg xmlns="http://www.w3.org/2000/svg" xmlns:xlink="http://www.w3.org/1999/xlink" width="500" zoomAndPan="magnify" viewBox="0 0 375 374.999991" height="500" preserveAspectRatio="xMidYMid meet" version="1.0"><defs><g/></defs><g fill="#000000" fill-opacity="1"><g transform="translate(95.417879, 216.125269)"><g><path d="M -0.132812 -1.398438 L -0.601562 -6.277344 L -5.121094 -8.058594 L -6.777344 -25.382812 L -2.675781 -27.988281 L -3.144531 -32.90625 L -28.710938 -16.875 L -28.269531 -12.261719 Z M -23.007812 -15.09375 L -10.554688 -23 L -9.285156 -9.6875 Z M -23.007812 -15.09375 "/></g></g></g><g fill="#000000" fill-opacity="1"><g transform="translate(92.495268, 184.269966)"><g><path d="M 0.601562 -2.863281 L 1.558594 -7.398438 L -7.808594 -9.371094 L -5.828125 -18.777344 C -4.644531 -24.394531 -8.214844 -28.09375 -12.378906 -28.972656 C -16.542969 -29.851562 -21.300781 -27.902344 -22.484375 -22.289062 L -25.421875 -8.347656 Z M -20.523438 -12.050781 L -18.621094 -21.085938 C -18.019531 -23.949219 -15.519531 -24.9375 -13.324219 -24.472656 C -11.132812 -24.011719 -9.246094 -22.101562 -9.847656 -19.238281 L -11.75 -10.203125 Z M -20.523438 -12.050781 "/></g></g></g><g fill="#000000" fill-opacity="1"><g transform="translate(97.516812, 159.002322)"><g><path d="M 1.347656 -2.597656 L 3.484375 -6.710938 L -5.011719 -11.121094 L -0.582031 -19.652344 C 2.0625 -24.746094 -0.382812 -29.269531 -4.160156 -31.230469 C -7.9375 -33.191406 -13.042969 -32.589844 -15.6875 -27.5 L -22.253906 -14.855469 Z M -16.542969 -17.113281 L -12.289062 -25.304688 C -10.941406 -27.902344 -8.269531 -28.183594 -6.277344 -27.152344 C -4.289062 -26.117188 -2.984375 -23.769531 -4.332031 -21.171875 L -8.585938 -12.980469 Z M -16.542969 -17.113281 "/></g></g></g><g fill="#000000" fill-opacity="1"><g transform="translate(109.08254, 135.997501)"><g><path d="M 2.261719 -8.246094 L -3.089844 -13.261719 L 8.03125 -25.125 L 5.121094 -27.851562 L -6 -15.988281 L -11.324219 -20.976562 L 1.566406 -34.726562 L -1.34375 -37.453125 L -17.402344 -20.324219 L 2 -2.132812 L 18.214844 -19.433594 L 15.304688 -22.160156 Z M 2.261719 -8.246094 "/></g></g></g><g fill="#000000" fill-opacity="1"><g transform="translate(126.594421, 116.463596)"><g><path d="M -12.398438 -23.554688 L -10.441406 -20.164062 L 0.378906 -26.425781 L 11.742188 -6.792969 L 15.785156 -9.132812 L 4.425781 -28.765625 L 15.242188 -35.027344 L 13.285156 -38.414062 Z M -12.398438 -23.554688 "/></g></g></g><g fill="#000000" fill-opacity="1"><g transform="translate(153.038507, 102.219164)"><g><path d="M 2.777344 -0.917969 L 7.179688 -2.371094 L -1.164062 -27.625 L -5.566406 -26.171875 Z M 2.777344 -0.917969 "/></g></g></g><g fill="#000000" fill-opacity="1"><g transform="translate(161.051745, 98.236854)"><g><path d="M -1.960938 -26.546875 L -1.515625 -22.65625 L 10.902344 -24.074219 L 13.476562 -1.539062 L 18.121094 -2.070312 L 15.546875 -24.605469 L 27.964844 -26.023438 L 27.523438 -29.914062 Z M -1.960938 -26.546875 "/></g></g></g><g fill="#000000" fill-opacity="1"><g transform="translate(191.033105, 95.773272)"><g/></g></g><g fill="#000000" fill-opacity="1"><g transform="translate(198.807767, 95.179545)"><g><path d="M 5.839844 -12.148438 C 3.222656 -3.175781 9.609375 3.554688 16.210938 5.480469 C 20.808594 6.820312 26.011719 6.078125 29.839844 3.398438 L 27.15625 -0.433594 C 24.59375 1.433594 21.199219 2.222656 17.625 1.179688 C 11.167969 -0.703125 9.25 -6.207031 10.578125 -10.765625 C 11.910156 -15.328125 16.484375 -18.941406 22.941406 -17.058594 C 26.003906 -16.164062 28.914062 -13.652344 30.125 -10.609375 L 34.457031 -12.433594 C 32.75 -16.769531 28.875 -20.035156 24.0625 -21.441406 C 17.496094 -23.355469 8.453125 -21.121094 5.839844 -12.148438 Z M 5.839844 -12.148438 "/></g></g></g><g fill="#000000" fill-opacity="1"><g transform="translate(226.891578, 102.708759)"><g><path d="M 34.101562 7.378906 C 39.453125 -0.375 35.40625 -8.757812 29.683594 -12.707031 C 23.992188 -16.632812 14.71875 -17.449219 9.367188 -9.691406 C 4.015625 -1.9375 8.0625 6.441406 13.753906 10.371094 C 19.476562 14.320312 28.75 15.132812 34.101562 7.378906 Z M 30.191406 4.683594 C 26.523438 9.996094 20.144531 9.472656 16.238281 6.773438 C 12.359375 4.097656 9.605469 -1.679688 13.277344 -6.996094 C 16.945312 -12.308594 23.324219 -11.785156 27.203125 -9.109375 C 31.109375 -6.410156 33.863281 -0.632812 30.191406 4.683594 Z M 30.191406 4.683594 "/></g></g></g><g fill="#000000" fill-opacity="1"><g transform="translate(253.593385, 120.135165)"><g><path d="M 1.679688 2.394531 L 4.34375 6.1875 L 19.519531 -4.46875 L 10.570312 15.050781 L 11.550781 16.449219 L 32.949219 14.652344 L 17.773438 25.308594 L 20.460938 29.132812 L 42.226562 13.847656 L 39.539062 10.023438 L 16.417969 12.007812 L 26.109375 -9.097656 L 23.445312 -12.890625 Z M 1.679688 2.394531 "/></g></g></g><g fill="#000000" fill-opacity="1"><g transform="translate(273.323741, 150.701893)"><g><path d="M 1.070312 2.722656 L 2.765625 7.035156 L 27.519531 -2.691406 L 25.824219 -7.007812 Z M 1.070312 2.722656 "/></g></g></g><g fill="#000000" fill-opacity="1"><g transform="translate(277.742085, 158.483912)"><g><path d="M 26.394531 -3.425781 L 22.539062 -2.769531 L 24.640625 9.554688 L 2.28125 13.371094 L 3.070312 17.976562 L 25.429688 14.160156 L 27.53125 26.484375 L 31.390625 25.824219 Z M 26.394531 -3.425781 "/></g></g></g><g fill="#000000" fill-opacity="1"><g transform="translate(282.805241, 187.544257)"><g><path d="M 3.023438 7.996094 L 10.300781 8.902344 L 8.289062 25.039062 L 12.246094 25.535156 L 14.257812 9.398438 L 21.496094 10.300781 L 19.167969 29 L 23.125 29.496094 L 26.03125 6.195312 L -0.363281 2.902344 L -3.296875 26.429688 L 0.664062 26.921875 Z M 3.023438 7.996094 "/></g></g></g></svg>