<svg xmlns="http://www.w3.org/2000/svg" xmlns:xlink="http://www.w3.org/1999/xlink" width="498" zoomAndPan="magnify" viewBox="0 0 373.5 293.25" height="391" preserveAspectRatio="xMidYMid meet" version="1.0"><defs><clipPath id="9b99dd4455"><path d="M 76 97.21875 L 297.574219 97.21875 L 297.574219 217.070312 L 76 217.070312 Z M 76 97.21875 " clip-rule="nonzero"/></clipPath><clipPath id="ac8503e1f4"><path d="M 176 80 L 274.746094 80 L 274.746094 157 L 176 157 Z M 176 80 " clip-rule="nonzero"/></clipPath><clipPath id="520224530e"><path d="M 172.121094 76 L 271 76 L 271 154 L 172.121094 154 Z M 172.121094 76 " clip-rule="nonzero"/></clipPath></defs><path fill="#ffc1d7" d="M 293.734375 210.542969 C 224.050781 212 146.847656 215.4375 77.160156 215.925781 L 79.28125 102.15625 C 120.671875 100.304688 162.675781 98.628906 204.152344 98.453125 C 234.839844 98.320312 265.480469 99.070312 296.121094 99.863281 C 296.210938 137.269531 296.210938 173.621094 293.734375 210.542969 Z M 293.734375 210.542969 " fill-opacity="1" fill-rule="nonzero"/><path fill="#ffd4e6" d="M 109.75 173.929688 C 109.75 179.488281 105.238281 184.03125 99.621094 184.03125 C 94.007812 184.03125 89.496094 179.53125 89.496094 173.929688 C 89.496094 168.328125 95.070312 163.828125 100.640625 163.828125 C 106.210938 163.828125 109.75 168.328125 109.75 173.929688 Z M 136.5 167.53125 C 132.566406 163.605469 125.402344 162.855469 121.464844 166.78125 C 117.53125 170.707031 117.53125 177.105469 121.464844 181.03125 C 125.402344 184.957031 131.8125 184.957031 135.75 181.03125 C 139.683594 177.105469 140.433594 171.457031 136.5 167.53125 Z M 168.027344 174.945312 C 168.027344 169.386719 163.515625 163.828125 157.902344 163.828125 C 152.328125 163.828125 147.773438 168.328125 147.773438 173.929688 C 147.773438 179.53125 152.285156 184.03125 157.902344 184.03125 C 163.515625 183.988281 168.027344 180.546875 168.027344 174.945312 Z M 217.285156 163.828125 C 211.710938 163.828125 206.140625 168.328125 206.140625 173.929688 C 206.140625 179.53125 210.652344 184.03125 216.265625 184.03125 C 221.882812 184.03125 226.394531 179.53125 226.394531 173.929688 C 226.394531 168.328125 222.855469 163.828125 217.285156 163.828125 Z M 253.054688 167.53125 C 249.121094 163.605469 241.957031 162.855469 238.023438 166.78125 C 234.085938 170.707031 234.085938 177.105469 238.023438 181.03125 C 241.957031 184.957031 248.367188 184.957031 252.304688 181.03125 C 256.238281 177.105469 256.992188 171.457031 253.054688 167.53125 Z M 284.625 174.945312 C 284.625 169.386719 280.117188 163.828125 274.5 163.828125 C 268.886719 163.828125 264.375 168.328125 264.375 173.929688 C 264.375 179.53125 268.886719 184.03125 274.5 184.03125 C 280.117188 184.03125 284.625 180.546875 284.625 174.945312 Z M 193.671875 181.78125 C 197.609375 177.855469 198.359375 170.707031 194.425781 166.78125 C 190.488281 162.855469 184.078125 162.855469 180.140625 166.78125 C 176.207031 170.707031 176.207031 177.105469 180.140625 181.03125 C 184.03125 185 189.691406 185.707031 193.671875 181.78125 Z M 193.671875 181.78125 " fill-opacity="1" fill-rule="nonzero"/><path fill="#f4c400" d="M 280.425781 136.390625 C 279.277344 132.816406 277.417969 129.15625 274.5 126.773438 C 277.863281 124.433594 280.203125 120.597656 280.734375 116.539062 C 280.914062 120.332031 283.210938 123.859375 286.128906 126.242188 C 283.785156 128.097656 281.046875 133.523438 280.425781 136.390625 Z M 286.96875 120.375 C 288.519531 121.65625 289.753906 123.550781 289.84375 125.582031 C 290.109375 123.421875 291.390625 121.347656 293.160156 120.113281 C 291.613281 118.832031 290.597656 116.890625 289.976562 114.949219 C 289.667969 116.496094 288.207031 119.40625 286.96875 120.375 Z M 286.96875 120.375 " fill-opacity="1" fill-rule="nonzero"/><g clip-path="url(#9b99dd4455)"><path fill="#2a2f3c" d="M 76.011719 217.027344 L 78.175781 101.097656 L 79.238281 101.054688 C 125.800781 98.9375 164.84375 97.527344 204.152344 97.347656 C 234.839844 97.21875 266.011719 98.011719 296.167969 98.761719 L 297.273438 98.804688 L 297.273438 99.90625 C 297.316406 135.949219 297.40625 173.265625 294.839844 210.675781 L 294.753906 211.691406 L 293.734375 211.691406 C 266.542969 212.261719 237.578125 213.144531 209.589844 214.027344 C 165.375 215.394531 119.652344 216.804688 77.160156 217.070312 Z M 80.386719 103.214844 L 78.308594 214.777344 C 120.449219 214.46875 165.726562 213.058594 209.546875 211.734375 C 237.183594 210.894531 265.789062 210.011719 292.675781 209.441406 C 295.105469 172.828125 295.0625 136.300781 295.019531 100.921875 C 265.214844 100.171875 234.441406 99.378906 204.152344 99.554688 C 165.195312 99.730469 126.460938 101.144531 80.386719 103.214844 Z M 219.496094 141.636719 C 236.519531 141.066406 252.570312 140.578125 273.792969 140.890625 L 273.835938 138.640625 C 252.570312 138.285156 236.472656 138.816406 219.40625 139.390625 C 205.832031 139.828125 191.816406 140.269531 174.746094 140.269531 L 174.746094 142.519531 C 191.859375 142.519531 205.875 142.078125 219.496094 141.636719 Z M 99.667969 185.132812 C 93.476562 185.132812 88.4375 180.105469 88.4375 173.929688 C 88.4375 167.972656 94.183594 162.722656 100.726562 162.722656 C 106.609375 162.722656 110.898438 167.445312 110.898438 173.929688 C 110.898438 180.105469 105.859375 185.132812 99.667969 185.132812 Z M 100.683594 164.929688 C 95.953125 164.929688 90.648438 168.769531 90.648438 173.886719 C 90.648438 178.824219 94.671875 182.839844 99.621094 182.839844 C 104.574219 182.839844 108.597656 178.824219 108.597656 173.886719 C 108.644531 168.636719 105.371094 164.929688 100.683594 164.929688 Z M 128.585938 185.132812 C 125.710938 185.132812 122.835938 184.03125 120.625 181.871094 C 116.25 177.503906 116.25 170.398438 120.625 166.03125 C 124.871094 161.796875 132.609375 162.152344 137.25 166.78125 C 141.40625 170.929688 141.097656 177.28125 136.5 181.871094 C 134.332031 184.03125 131.460938 185.132812 128.585938 185.132812 Z M 128.144531 165.28125 C 125.976562 165.28125 123.808594 165.988281 122.21875 167.578125 C 118.726562 171.0625 118.726562 176.753906 122.21875 180.28125 C 125.710938 183.765625 131.414062 183.765625 134.953125 180.28125 C 138.710938 176.53125 139.019531 171.636719 135.703125 168.328125 C 133.800781 166.429688 130.929688 165.28125 128.144531 165.28125 Z M 157.945312 185.132812 C 151.753906 185.132812 146.714844 180.105469 146.714844 173.929688 C 146.714844 167.753906 151.753906 162.722656 157.945312 162.722656 C 163.914062 162.722656 169.175781 168.460938 169.175781 174.988281 C 169.175781 180.855469 164.445312 185.132812 157.945312 185.132812 Z M 157.945312 164.929688 C 152.992188 164.929688 148.96875 168.945312 148.96875 173.886719 C 148.96875 178.824219 152.992188 182.839844 157.945312 182.839844 C 163.25 182.839844 166.921875 179.574219 166.921875 174.898438 C 166.921875 170.222656 163.074219 164.929688 157.945312 164.929688 Z M 216.222656 185.132812 C 210.03125 185.132812 204.992188 180.105469 204.992188 173.929688 C 204.992188 167.972656 210.738281 162.722656 217.285156 162.722656 C 223.164062 162.722656 227.453125 167.445312 227.453125 173.929688 C 227.453125 180.105469 222.414062 185.132812 216.222656 185.132812 Z M 217.285156 164.929688 C 212.554688 164.929688 207.246094 168.769531 207.246094 173.886719 C 207.246094 178.824219 211.269531 182.839844 216.222656 182.839844 C 221.175781 182.839844 225.199219 178.824219 225.199219 173.886719 C 225.199219 168.636719 221.925781 164.929688 217.285156 164.929688 Z M 245.140625 185.132812 C 242.132812 185.132812 239.304688 183.988281 237.183594 181.871094 C 232.804688 177.503906 232.804688 170.398438 237.183594 166.03125 C 241.425781 161.796875 249.164062 162.152344 253.808594 166.78125 C 257.964844 170.929688 257.652344 177.28125 253.054688 181.871094 C 250.976562 183.941406 248.148438 185.132812 245.140625 185.132812 Z M 244.699219 165.28125 C 242.53125 165.28125 240.367188 165.988281 238.773438 167.578125 C 235.28125 171.0625 235.28125 176.753906 238.773438 180.28125 C 240.453125 181.957031 242.707031 182.929688 245.140625 182.929688 C 247.574219 182.929688 249.785156 182 251.507812 180.28125 C 255.265625 176.53125 255.574219 171.636719 252.261719 168.328125 C 250.359375 166.429688 247.527344 165.28125 244.699219 165.28125 Z M 274.5 185.132812 C 268.3125 185.132812 263.269531 180.105469 263.269531 173.929688 C 263.269531 167.753906 268.3125 162.722656 274.5 162.722656 C 280.46875 162.722656 285.730469 168.460938 285.730469 174.988281 C 285.730469 180.855469 281 185.132812 274.5 185.132812 Z M 274.5 164.929688 C 269.546875 164.929688 265.523438 168.945312 265.523438 173.886719 C 265.523438 178.824219 269.546875 182.839844 274.5 182.839844 C 279.808594 182.839844 283.476562 179.574219 283.476562 174.898438 C 283.476562 170.222656 279.628906 164.929688 274.5 164.929688 Z M 187.527344 185.488281 C 184.695312 185.488281 181.734375 184.25 179.300781 181.824219 C 174.925781 177.457031 174.925781 170.355469 179.300781 165.988281 C 183.679688 161.621094 190.796875 161.621094 195.175781 165.988281 C 199.421875 170.222656 199.066406 177.941406 194.425781 182.574219 C 192.476562 184.515625 190.046875 185.488281 187.527344 185.488281 Z M 187.261719 164.929688 C 184.960938 164.929688 182.664062 165.8125 180.894531 167.53125 C 177.402344 171.019531 177.402344 176.707031 180.894531 180.238281 C 184.652344 183.988281 189.558594 184.296875 192.875 180.988281 C 196.238281 177.632812 197.253906 171.195312 193.628906 167.578125 C 191.859375 165.8125 189.558594 164.929688 187.261719 164.929688 Z M 107.980469 127.214844 C 107.847656 127.082031 107.671875 127.082031 107.492188 127.039062 C 106.652344 126.90625 105.503906 126.683594 104.664062 126.597656 C 103.957031 130.433594 103.558594 133.785156 102.984375 137.757812 C 101.878906 135.59375 100.992188 134.007812 100.640625 133.433594 C 99.445312 133.652344 98.828125 133.609375 97.410156 133.742188 C 97.410156 133.742188 96.835938 135.066406 96.835938 135.066406 C 96.261719 136.257812 96.042969 136.699219 95.597656 137.890625 C 95.023438 135.109375 94.625 133.609375 93.964844 130.523438 C 93.699219 129.332031 93.519531 128.097656 93.078125 126.949219 C 93.035156 126.816406 92.992188 126.683594 92.859375 126.640625 C 92.726562 126.597656 92.59375 126.597656 92.503906 126.640625 C 91.488281 126.90625 90.515625 127.214844 89.496094 127.476562 C 90.425781 133.214844 91.972656 138.992188 93.125 144.683594 C 94.539062 144.683594 96.617188 144.816406 96.882812 144.507812 C 97.148438 144.242188 98.648438 140.492188 99.136719 139.210938 C 99.886719 140.667969 100.597656 142.652344 101.347656 144.152344 C 101.4375 144.285156 101.480469 144.417969 101.613281 144.460938 C 101.789062 144.550781 104.042969 144.066406 105.0625 144.152344 C 106.34375 138.417969 107.359375 133.433594 108.113281 128.007812 C 108.199219 127.742188 108.199219 127.433594 107.980469 127.214844 Z M 118.726562 142.875 C 118.726562 142.167969 118.679688 141.507812 118.679688 140.800781 C 118.679688 140.578125 118.769531 140.140625 118.636719 139.917969 C 118.546875 139.699219 118.195312 139.699219 117.972656 139.699219 C 116.691406 139.785156 115.410156 139.875 114.082031 139.960938 C 114.039062 138.859375 113.992188 137.757812 113.949219 136.652344 C 114.304688 136.652344 114.65625 136.652344 115.011719 136.652344 C 115.851562 136.609375 116.691406 136.523438 117.488281 136.390625 C 117.574219 136.390625 117.621094 136.390625 117.664062 136.34375 C 117.707031 136.300781 117.75 136.210938 117.75 136.167969 C 117.839844 135.859375 117.839844 135.507812 117.839844 135.199219 C 117.839844 134.492188 117.839844 133.832031 117.839844 133.125 C 117.839844 132.90625 117.882812 132.683594 117.707031 132.550781 C 117.488281 132.375 117.132812 132.375 116.867188 132.375 C 115.851562 132.464844 114.789062 132.550781 113.773438 132.640625 C 113.726562 131.625 113.683594 130.65625 113.640625 129.640625 C 114.699219 129.597656 115.71875 129.507812 116.777344 129.464844 C 116.910156 129.464844 117.089844 129.464844 117.175781 129.375 C 117.355469 129.242188 117.398438 128.933594 117.398438 128.714844 C 117.398438 128.007812 117.398438 127.347656 117.398438 126.640625 C 117.398438 126.289062 117.441406 125.757812 117.042969 125.582031 C 116.824219 125.492188 116.46875 125.582031 116.203125 125.582031 C 115.851562 125.582031 115.496094 125.625 115.144531 125.625 C 114.480469 125.667969 113.773438 125.714844 113.109375 125.757812 C 112.886719 125.757812 112.710938 125.800781 112.488281 125.800781 C 112.488281 125.800781 111.03125 126.023438 110.277344 126.15625 C 109.171875 126.375 109.527344 126.992188 109.617188 128.097656 C 109.703125 129.15625 109.75 130.167969 109.792969 131.226562 C 109.925781 133.34375 110.015625 135.460938 110.058594 137.582031 C 110.101562 138.726562 110.101562 139.875 110.101562 141.066406 C 110.101562 141.816406 110.101562 142.566406 110.191406 143.316406 C 110.191406 143.492188 110.234375 143.667969 110.324219 143.800781 C 110.589844 144.195312 111.164062 144.109375 111.605469 144.066406 C 111.960938 144.019531 112.226562 144.019531 112.488281 144.019531 C 112.621094 144.019531 112.753906 144.019531 112.886719 144.019531 C 113.066406 144.019531 113.242188 144.019531 113.460938 143.976562 C 114.964844 143.886719 116.46875 143.757812 118.015625 143.667969 C 118.148438 143.667969 118.28125 143.667969 118.371094 143.578125 C 118.726562 143.402344 118.726562 143.136719 118.726562 142.875 Z M 129.160156 143.050781 C 129.25 142.386719 129.292969 141.683594 129.382812 141.019531 C 129.425781 140.800781 129.558594 140.359375 129.46875 140.140625 C 129.382812 139.917969 129.027344 139.875 128.851562 139.828125 C 127.566406 139.785156 126.242188 139.699219 124.960938 139.652344 C 125.046875 138.550781 125.136719 137.449219 125.222656 136.34375 C 125.578125 136.390625 125.933594 136.433594 126.285156 136.433594 C 127.125 136.476562 127.964844 136.476562 128.804688 136.476562 C 128.894531 136.476562 128.9375 136.476562 129.027344 136.433594 C 129.070312 136.390625 129.117188 136.34375 129.160156 136.257812 C 129.292969 135.949219 129.335938 135.640625 129.382812 135.285156 C 129.46875 134.582031 129.558594 133.917969 129.601562 133.214844 C 129.644531 132.992188 129.691406 132.816406 129.558594 132.640625 C 129.382812 132.417969 129.027344 132.375 128.761719 132.375 C 127.746094 132.332031 126.683594 132.285156 125.667969 132.242188 C 125.753906 131.226562 125.84375 130.257812 125.933594 129.242188 C 126.992188 129.285156 128.011719 129.375 129.070312 129.417969 C 129.203125 129.417969 129.382812 129.417969 129.46875 129.375 C 129.691406 129.242188 129.734375 128.976562 129.734375 128.757812 C 129.824219 128.097656 129.867188 127.390625 129.957031 126.730469 C 130 126.375 130.089844 125.847656 129.734375 125.667969 C 129.511719 125.539062 129.160156 125.582031 128.894531 125.582031 C 128.539062 125.539062 128.1875 125.539062 127.832031 125.539062 C 127.171875 125.492188 126.460938 125.449219 125.800781 125.449219 C 125.578125 125.449219 125.402344 125.449219 125.179688 125.449219 C 125.179688 125.449219 123.722656 125.492188 122.925781 125.539062 C 121.820312 125.625 122.039062 126.289062 122.039062 127.390625 C 122.039062 128.449219 121.910156 129.507812 121.863281 130.523438 C 121.730469 132.640625 121.554688 134.757812 121.378906 136.875 C 121.289062 138.019531 121.15625 139.167969 121.023438 140.316406 C 120.933594 141.066406 120.847656 141.816406 120.847656 142.566406 C 120.847656 142.742188 120.847656 142.917969 120.933594 143.050781 C 121.113281 143.492188 121.730469 143.445312 122.171875 143.445312 C 122.527344 143.445312 122.792969 143.492188 123.058594 143.492188 C 123.191406 143.492188 123.324219 143.535156 123.457031 143.535156 C 123.632812 143.535156 123.808594 143.578125 124.03125 143.578125 C 125.535156 143.667969 127.082031 143.757812 128.585938 143.800781 C 128.71875 143.800781 128.851562 143.800781 128.9375 143.757812 C 129.070312 143.578125 129.117188 143.269531 129.160156 143.050781 Z M 167.40625 135.417969 C 167.273438 132.066406 167.054688 128.714844 166.789062 125.40625 C 166.746094 125.007812 166.480469 124.699219 166.082031 124.699219 C 165.019531 124.566406 163.339844 124.566406 162.941406 125.097656 C 162.675781 125.40625 162.941406 127.125 162.984375 127.832031 C 163.074219 128.800781 163.117188 129.773438 163.164062 130.742188 C 162.675781 130.742188 162.234375 130.65625 161.835938 130.390625 C 161.351562 130.035156 161.128906 129.464844 160.996094 128.890625 C 160.730469 127.964844 160.464844 126.992188 160.289062 126.023438 C 160.246094 125.847656 160.113281 125.714844 159.933594 125.757812 C 158.828125 125.757812 157.636719 125.847656 156.53125 125.980469 C 156.351562 125.980469 156.21875 126.15625 156.21875 126.332031 C 156.265625 127.609375 156.351562 128.890625 156.707031 130.125 C 157.0625 131.449219 157.769531 132.773438 158.875 133.566406 C 159.582031 134.09375 160.421875 134.402344 161.261719 134.582031 C 161.925781 134.714844 162.675781 134.757812 163.339844 134.714844 C 163.382812 135.332031 163.382812 135.992188 163.429688 136.609375 C 163.472656 137.359375 163.296875 138.109375 162.898438 138.726562 C 162.765625 138.902344 162.632812 139.082031 162.457031 139.167969 C 162.191406 139.34375 161.835938 139.390625 161.527344 139.34375 C 161.304688 139.300781 161.085938 139.257812 160.863281 139.167969 C 160.730469 139.125 160.597656 139.167969 160.507812 139.300781 C 160.332031 139.566406 159.980469 140.007812 159.847656 140.226562 C 159.535156 140.667969 159.140625 141.152344 158.828125 141.683594 C 158.652344 141.949219 158.742188 142.300781 158.960938 142.519531 C 159.449219 142.960938 160.023438 143.316406 160.6875 143.445312 C 161.304688 143.578125 161.925781 143.535156 162.542969 143.402344 C 164.179688 143.007812 165.640625 141.902344 166.523438 140.449219 C 167.363281 138.902344 167.453125 137.09375 167.40625 135.417969 Z M 155.558594 139.167969 C 155.113281 139.167969 151.976562 138.949219 150.871094 139.035156 C 150.78125 139.035156 150.695312 139.035156 150.605469 139.035156 C 150.5625 134.757812 150.382812 130.476562 150.074219 126.199219 C 150.074219 126.066406 150.03125 125.890625 149.941406 125.800781 C 149.808594 125.667969 149.589844 125.714844 149.367188 125.757812 C 148.792969 125.890625 146.226562 125.847656 146.007812 126.15625 C 145.785156 126.464844 146.09375 129.242188 146.09375 129.90625 C 146.183594 132.550781 146.273438 135.152344 146.316406 137.800781 C 146.359375 139.300781 146.359375 140.800781 146.40625 142.300781 C 146.40625 142.699219 146.449219 143.136719 146.800781 143.316406 C 146.933594 143.359375 147.066406 143.359375 147.199219 143.359375 C 147.597656 143.359375 147.996094 143.359375 148.351562 143.359375 C 148.4375 143.359375 148.527344 143.359375 148.617188 143.359375 C 148.835938 143.359375 149.058594 143.359375 149.277344 143.359375 C 149.542969 143.359375 149.808594 143.359375 150.074219 143.359375 C 151.402344 143.359375 152.640625 143.445312 153.964844 143.445312 C 154.585938 143.445312 155.777344 143.578125 155.957031 143.226562 C 156.089844 142.960938 156.132812 141.066406 156.132812 140.09375 C 156.175781 139.652344 156.089844 139.167969 155.558594 139.167969 Z M 139.375 133.523438 C 139.859375 133.035156 140.347656 132.550781 140.832031 131.976562 C 141.851562 130.742188 143.441406 129.023438 143.484375 128.359375 C 143.53125 127.609375 142.511719 126.730469 141.894531 126.332031 C 141.71875 126.199219 141.496094 126.066406 141.230469 126.066406 C 140.832031 126.023438 140.480469 126.332031 140.167969 126.597656 C 139.019531 127.699219 137.914062 128.847656 136.855469 129.992188 C 136.808594 129.15625 136.808594 128.316406 136.808594 127.476562 C 136.808594 126.90625 136.808594 126.289062 136.410156 125.890625 C 136.011719 125.492188 135.4375 125.492188 134.863281 125.539062 C 134.511719 125.539062 133.671875 125.582031 133.316406 125.582031 C 133.140625 125.582031 133.007812 125.582031 132.875 125.667969 C 132.566406 125.847656 132.476562 126.242188 132.433594 126.597656 C 132.167969 128.976562 132.519531 131.273438 132.519531 133.652344 C 132.519531 136.433594 132.609375 139.257812 132.742188 142.035156 C 132.742188 142.433594 132.785156 142.875 133.050781 143.136719 C 133.359375 143.535156 133.933594 143.535156 134.464844 143.578125 C 134.996094 143.578125 135.570312 143.578125 136.101562 143.625 C 136.324219 143.625 136.542969 143.625 136.722656 143.535156 C 137.164062 143.316406 137.25 142.785156 137.296875 142.300781 C 137.382812 140.800781 137.382812 139.300781 137.339844 137.800781 C 138.3125 139.433594 139.328125 141.019531 140.300781 142.652344 C 140.433594 142.875 140.613281 143.136719 140.878906 143.183594 C 141.144531 143.226562 141.363281 143.050781 141.539062 142.917969 C 142.027344 142.566406 142.558594 142.167969 143.042969 141.816406 C 143.222656 141.683594 143.398438 141.550781 143.484375 141.328125 C 143.617188 141.019531 143.441406 140.667969 143.308594 140.359375 C 142.070312 137.976562 140.746094 135.726562 139.375 133.523438 Z M 280.425781 136.960938 C 279.984375 136.960938 279.585938 136.699219 279.453125 136.257812 C 278.125 132.375 276.3125 129.464844 274.058594 127.566406 C 273.835938 127.347656 273.660156 127.082031 273.703125 126.773438 C 273.703125 126.464844 273.882812 126.15625 274.148438 125.980469 C 277.019531 123.949219 279.054688 120.773438 279.71875 117.289062 C 279.808594 116.804688 280.25 116.449219 280.734375 116.449219 C 280.734375 116.449219 280.734375 116.449219 280.78125 116.449219 C 281.265625 116.449219 281.707031 116.847656 281.753906 117.332031 C 282.152344 120.199219 283.917969 123.15625 286.617188 125.449219 C 286.835938 125.625 286.96875 125.933594 286.96875 126.242188 C 286.96875 126.550781 286.835938 126.816406 286.617188 127.039062 C 284.671875 128.625 282.195312 133.34375 281.441406 136.210938 C 281.265625 136.652344 280.914062 136.960938 280.425781 136.960938 Z M 281.132812 135.726562 Z M 275.914062 126.859375 C 277.683594 128.582031 279.1875 130.832031 280.382812 133.699219 C 281.398438 131.183594 283.078125 128.097656 284.757812 126.332031 C 282.902344 124.609375 281.488281 122.539062 280.648438 120.421875 C 279.628906 122.890625 277.992188 125.140625 275.914062 126.859375 Z M 275.164062 127.433594 Z M 285.421875 126.859375 Z M 275.207031 126.199219 Z M 285.421875 125.667969 Z M 281.441406 117.640625 Z M 279.941406 117.597656 Z M 289.84375 126.023438 C 289.359375 126.023438 288.960938 125.667969 288.871094 125.183594 C 288.695312 123.730469 287.765625 122.273438 286.394531 121.082031 C 286.175781 120.90625 286.042969 120.640625 286.042969 120.332031 C 286.042969 120.066406 286.175781 119.757812 286.394531 119.582031 C 287.367188 118.789062 288.648438 116.363281 289.003906 114.90625 C 289.09375 114.507812 289.492188 114.199219 289.886719 114.199219 C 290.332031 114.199219 290.683594 114.464844 290.816406 114.863281 C 291.480469 116.847656 292.410156 118.390625 293.558594 119.316406 C 293.78125 119.492188 293.914062 119.804688 293.914062 120.066406 C 293.914062 120.375 293.734375 120.640625 293.515625 120.816406 C 292.054688 121.832031 291.039062 123.464844 290.683594 125.183594 C 290.730469 125.714844 290.332031 126.023438 289.84375 126.023438 Z M 289.046875 124.875 Z M 288.253906 120.332031 C 288.914062 120.992188 289.445312 121.742188 289.886719 122.539062 C 290.375 121.613281 291.039062 120.773438 291.789062 120.066406 C 291.125 119.363281 290.550781 118.480469 290.019531 117.464844 C 289.578125 118.480469 288.914062 119.539062 288.253906 120.332031 Z M 287.589844 120.992188 Z M 292.542969 120.730469 Z M 287.589844 119.714844 Z M 292.585938 119.40625 Z M 289.226562 115.4375 Z M 289.226562 115.4375 " fill-opacity="1" fill-rule="nonzero"/></g><g clip-path="url(#ac8503e1f4)"><path fill="#ddc7cd" d="M 274.117188 136.46875 C 273.644531 133.03125 273.015625 122.402344 273.015625 114.429688 C 273.015625 112.554688 273.171875 110.210938 273.171875 107.863281 C 273.488281 100.050781 273.800781 92.078125 271.757812 87.234375 C 268.613281 79.417969 256.355469 80.042969 246.457031 80.667969 C 244.882812 80.824219 243.3125 80.824219 242.683594 80.824219 C 240.328125 80.667969 235.296875 80.824219 229.167969 81.136719 C 224.140625 81.292969 218.324219 81.605469 212.824219 81.605469 C 209.679688 81.605469 206.695312 81.605469 203.707031 81.449219 C 193.492188 81.292969 185.476562 80.980469 180.761719 85.667969 C 179.035156 87.390625 177.148438 90.515625 176.675781 100.207031 C 176.363281 105.675781 176.675781 110.992188 177.148438 113.960938 C 177.460938 115.992188 177.148438 120.679688 176.992188 125.058594 C 176.675781 130.683594 176.363281 136.9375 176.835938 142.40625 C 177.304688 148.035156 179.035156 151.941406 182.019531 154.285156 C 185.007812 156.632812 188.308594 156.789062 190.351562 156.945312 C 190.507812 156.945312 190.664062 156.945312 190.976562 156.945312 C 191.292969 156.945312 191.605469 156.945312 191.921875 156.945312 C 193.335938 156.945312 195.222656 156.789062 197.894531 156.632812 C 203.707031 156.164062 213.296875 155.382812 226.8125 155.539062 C 247.085938 156.007812 259.34375 155.539062 265.316406 154.441406 C 269.871094 153.503906 273.171875 150.378906 274.429688 145.535156 C 274.746094 142.40625 274.585938 138.8125 274.117188 136.46875 Z M 274.117188 136.46875 " fill-opacity="1" fill-rule="nonzero"/></g><g clip-path="url(#520224530e)"><path fill="#ffffff" d="M 269.871094 132.71875 C 269.402344 129.277344 268.773438 118.648438 268.773438 110.679688 C 268.773438 108.800781 268.929688 106.457031 268.929688 104.113281 C 269.242188 96.296875 269.558594 88.328125 267.515625 83.480469 C 264.371094 75.667969 252.113281 76.292969 242.210938 76.917969 C 240.640625 77.074219 239.070312 77.074219 238.441406 77.074219 C 236.082031 76.917969 231.054688 77.074219 224.925781 77.386719 C 219.894531 77.542969 214.082031 77.855469 208.582031 77.855469 C 205.4375 77.855469 202.449219 77.855469 199.464844 77.699219 C 189.25 77.386719 181.234375 77.230469 176.519531 81.917969 C 174.792969 83.636719 172.90625 86.765625 172.433594 96.453125 C 172.121094 101.925781 172.433594 107.238281 172.90625 110.210938 C 173.21875 112.242188 172.90625 116.929688 172.746094 121.308594 C 172.433594 126.933594 172.121094 133.1875 172.589844 138.65625 C 173.0625 144.285156 174.792969 148.191406 177.777344 150.535156 C 180.761719 152.878906 184.0625 153.035156 186.105469 153.191406 C 186.265625 153.191406 186.421875 153.191406 186.734375 153.191406 C 187.050781 153.191406 187.363281 153.191406 187.679688 153.191406 C 189.09375 153.191406 190.976562 153.035156 193.648438 152.878906 C 199.464844 152.410156 209.050781 151.628906 222.566406 151.785156 C 242.839844 152.253906 255.097656 151.785156 261.070312 150.691406 C 265.628906 149.753906 268.929688 146.628906 270.1875 141.78125 C 270.5 138.65625 270.1875 135.0625 269.871094 132.71875 Z M 269.871094 132.71875 " fill-opacity="1" fill-rule="nonzero"/></g><path fill="#f4c151" d="M 180.605469 85.980469 C 184.691406 82.074219 196.480469 83.792969 208.582031 83.636719 C 220.679688 83.480469 234.039062 82.699219 237.96875 82.855469 C 242.054688 83.011719 259.972656 80.667969 262.015625 85.667969 C 264.058594 90.671875 262.800781 102.863281 262.800781 110.679688 C 262.800781 118.492188 263.429688 129.589844 264.058594 133.5 C 264.6875 137.5625 264.6875 143.972656 259.34375 144.910156 C 254 145.847656 242.371094 146.316406 222.097656 145.847656 C 201.664062 145.378906 190.035156 147.410156 186.578125 147.253906 C 183.121094 147.097656 178.878906 147.410156 178.089844 138.03125 C 177.304688 128.652344 179.347656 114.898438 178.5625 109.425781 C 177.777344 103.957031 177.621094 89.109375 180.605469 85.980469 Z M 180.605469 85.980469 " fill-opacity="1" fill-rule="nonzero"/><path fill="#ffeef5" d="M 205.4375 109.425781 L 201.507812 109.898438 L 198.992188 101.457031 L 196.007812 111.148438 L 193.023438 111.148438 L 189.09375 102.394531 L 187.992188 111.304688 L 184.847656 111.460938 L 185.476562 91.921875 L 188.621094 91.609375 L 194.121094 102.863281 L 197.265625 90.671875 L 203.707031 90.984375 Z M 205.4375 109.425781 " fill-opacity="1" fill-rule="nonzero"/><path fill="#ffeef5" d="M 220.054688 92.703125 L 214.082031 93.953125 L 214.710938 98.332031 L 219.738281 99.113281 L 219.265625 101.769531 L 214.238281 102.863281 L 215.023438 107.238281 L 221.9375 107.238281 L 221.46875 110.992188 L 214.082031 112.242188 L 211.566406 111.929688 L 210.78125 90.671875 L 220.054688 89.734375 Z M 220.054688 92.703125 " fill-opacity="1" fill-rule="nonzero"/><path fill="#ffeef5" d="M 235.296875 89.890625 L 230.109375 90.671875 L 224.769531 112.085938 L 228.066406 111.460938 L 229.796875 106.300781 L 235.140625 105.519531 L 236.710938 110.992188 L 239.855469 110.835938 Z M 230.738281 101.613281 L 232.3125 95.203125 L 234.511719 101.457031 Z M 230.738281 101.613281 " fill-opacity="1" fill-rule="nonzero"/><path fill="#ef7fa2" d="M 229.640625 118.023438 L 224.453125 118.804688 L 219.109375 140.21875 L 222.410156 139.59375 L 224.140625 134.4375 L 229.484375 133.65625 L 231.054688 139.125 L 234.199219 138.96875 Z M 225.082031 129.589844 L 226.652344 123.183594 L 228.855469 129.433594 Z M 225.082031 129.589844 " fill-opacity="1" fill-rule="nonzero"/><path fill="#ffeef5" d="M 256.515625 106.925781 L 256.515625 110.367188 L 249.441406 111.617188 L 246.769531 111.617188 L 245.671875 104.894531 L 244.882812 90.828125 L 249.285156 90.203125 L 251.171875 106.300781 Z M 256.515625 106.925781 " fill-opacity="1" fill-rule="nonzero"/><path fill="#ef7fa2" d="M 197.894531 120.523438 L 192.550781 117.710938 L 186.890625 118.648438 L 186.265625 127.871094 L 186.421875 140.375 L 189.722656 140.53125 L 190.664062 133.65625 C 190.664062 133.65625 192.707031 132.5625 194.75 131.777344 C 196.636719 131.152344 197.421875 129.433594 198.363281 125.371094 Z M 190.976562 129.121094 L 190.664062 121.308594 C 190.664062 121.308594 194.277344 122.246094 194.4375 124.902344 C 194.75 127.558594 190.976562 129.121094 190.976562 129.121094 Z M 190.976562 129.121094 " fill-opacity="1" fill-rule="nonzero"/><path fill="#ef7fa2" d="M 208.421875 134.59375 L 215.179688 134.4375 L 214.867188 138.65625 L 208.894531 139.59375 L 204.496094 139.59375 L 203.078125 119.273438 L 207.324219 118.804688 Z M 208.421875 134.59375 " fill-opacity="1" fill-rule="nonzero"/><path fill="#ef7fa2" d="M 253.527344 118.804688 L 254.628906 139.4375 L 251.640625 139.4375 L 244.253906 129.277344 L 245.355469 139.125 L 241.113281 139.125 L 239.070312 120.054688 L 242.683594 119.429688 L 250.382812 130.996094 L 248.96875 119.117188 Z M 253.527344 118.804688 " fill-opacity="1" fill-rule="nonzero"/><path fill="#a02054" d="M 184.0625 110.210938 C 184.0625 108.644531 184.21875 101.613281 184.21875 100.207031 C 184.21875 99.582031 184.378906 96.609375 184.378906 95.828125 C 184.378906 95.671875 184.535156 94.265625 184.535156 93.640625 C 184.535156 93.171875 184.691406 91.765625 184.691406 91.765625 C 184.691406 91.765625 184.847656 91.296875 184.847656 91.140625 L 185.007812 90.671875 C 185.476562 90.203125 185.792969 90.046875 186.265625 89.734375 L 186.890625 89.109375 L 187.363281 88.953125 L 190.351562 88.953125 L 190.976562 89.265625 L 191.136719 89.734375 L 191.292969 90.515625 L 191.449219 90.984375 C 191.449219 91.140625 191.921875 91.921875 191.921875 91.921875 L 192.078125 92.703125 L 192.234375 93.328125 L 192.394531 94.109375 C 192.394531 94.109375 192.550781 94.578125 192.550781 94.734375 C 192.707031 95.359375 193.335938 96.765625 193.335938 96.921875 L 193.492188 97.390625 L 193.648438 98.015625 L 193.808594 98.488281 L 193.964844 98.015625 C 193.964844 97.859375 194.4375 97.078125 194.4375 96.765625 C 194.4375 96.609375 195.066406 95.828125 195.066406 95.515625 C 195.066406 95.515625 195.222656 94.890625 195.222656 94.734375 C 195.222656 94.578125 195.378906 93.796875 195.378906 93.484375 L 195.535156 92.859375 L 195.691406 91.921875 C 195.691406 91.765625 195.851562 91.140625 195.851562 91.140625 C 195.851562 90.984375 196.320312 90.359375 196.320312 90.359375 C 196.320312 90.359375 196.949219 89.890625 197.109375 89.734375 L 197.738281 89.265625 L 197.894531 89.109375 C 198.050781 89.109375 198.523438 88.640625 198.679688 88.640625 L 199.308594 88.484375 L 199.78125 88.328125 L 200.40625 88.328125 C 200.566406 88.328125 201.980469 88.484375 202.449219 88.484375 C 202.921875 88.484375 203.707031 88.640625 203.867188 88.640625 L 204.335938 88.796875 L 204.496094 88.953125 C 204.496094 89.109375 204.652344 90.203125 204.652344 90.359375 C 204.652344 90.515625 205.121094 92.234375 205.121094 92.390625 C 205.121094 92.546875 205.28125 93.640625 205.28125 93.640625 L 205.28125 94.265625 C 205.28125 94.421875 205.75 95.828125 205.75 96.140625 L 205.75 96.296875 L 205.59375 96.453125 L 205.75 96.921875 C 205.75 97.078125 205.910156 98.332031 205.910156 98.488281 C 205.910156 98.644531 206.378906 100.519531 206.378906 100.675781 L 206.378906 100.832031 C 206.378906 100.988281 206.851562 102.707031 206.851562 102.863281 L 206.851562 103.332031 C 206.851562 103.488281 207.007812 103.957031 207.007812 104.113281 L 207.164062 104.582031 L 207.324219 104.738281 L 207.480469 105.363281 L 207.480469 105.832031 L 207.636719 106.300781 L 207.480469 107.082031 L 207.480469 107.550781 L 207.007812 108.332031 L 206.695312 109.113281 C 206.695312 109.269531 206.222656 109.898438 206.222656 109.898438 L 205.59375 110.054688 L 205.121094 110.210938 L 203.867188 110.210938 L 203.550781 110.523438 L 202.292969 110.523438 L 201.507812 110.679688 L 201.035156 110.679688 L 200.878906 110.523438 L 200.722656 110.054688 C 200.722656 109.898438 200.25 109.113281 200.25 108.800781 C 200.09375 107.550781 199.78125 106.457031 199.464844 105.363281 C 199.464844 105.519531 199.308594 106.613281 199.308594 106.769531 C 199.152344 107.238281 198.679688 108.957031 198.679688 109.113281 L 198.207031 109.742188 L 198.050781 110.210938 L 197.578125 110.679688 L 196.792969 111.148438 L 196.636719 111.617188 L 196.480469 111.773438 L 196.007812 111.929688 L 195.378906 111.929688 L 195.378906 111.773438 L 195.222656 111.773438 L 194.75 111.617188 L 194.277344 111.617188 L 194.121094 112.085938 L 192.550781 112.085938 C 192.550781 112.085938 192.078125 111.617188 192.078125 111.460938 C 191.921875 110.992188 191.292969 109.585938 191.136719 109.425781 C 191.136719 109.425781 190.976562 108.957031 190.976562 108.800781 C 190.976562 108.644531 190.351562 106.613281 190.351562 106.457031 C 190.351562 105.988281 190.191406 105.675781 189.878906 105.519531 C 189.878906 105.675781 189.722656 106.457031 189.722656 106.769531 L 189.722656 109.585938 L 189.5625 110.210938 L 189.09375 110.679688 C 189.09375 110.835938 188.621094 111.304688 188.621094 111.304688 L 188.464844 112.242188 L 187.992188 112.398438 C 187.835938 112.398438 185.792969 112.554688 185.636719 112.554688 L 184.847656 112.554688 C 184.691406 112.554688 184.0625 112.085938 184.0625 112.085938 L 183.90625 111.617188 C 183.90625 111.460938 184.0625 110.523438 184.0625 110.210938 Z M 186.105469 94.265625 L 186.105469 94.734375 C 186.105469 94.890625 185.949219 95.984375 185.949219 96.140625 C 185.949219 96.609375 185.792969 100.363281 185.792969 101.613281 L 185.792969 102.863281 C 185.792969 103.800781 185.636719 107.707031 185.636719 108.332031 C 185.636719 108.488281 185.476562 110.523438 185.476562 110.679688 L 185.476562 111.148438 L 186.890625 111.148438 C 187.050781 111.148438 187.519531 110.992188 187.519531 110.992188 L 187.679688 110.523438 L 187.679688 108.488281 C 187.679688 108.019531 187.835938 106.457031 187.835938 106.144531 L 187.992188 105.363281 C 187.992188 104.894531 188.148438 103.332031 188.148438 103.019531 L 188.148438 99.738281 L 188.308594 99.582031 L 189.09375 99.582031 L 189.25 99.738281 C 189.40625 100.207031 190.507812 102.550781 190.664062 103.019531 C 190.664062 103.175781 191.292969 104.425781 191.292969 104.582031 C 191.292969 104.582031 191.765625 105.363281 191.765625 105.519531 C 191.765625 105.675781 192.234375 107.394531 192.394531 107.863281 L 192.550781 108.800781 L 192.707031 109.269531 L 192.863281 109.425781 L 193.023438 110.210938 L 193.179688 110.679688 C 193.335938 110.679688 194.121094 110.835938 194.4375 110.835938 L 195.066406 110.835938 L 195.535156 110.679688 C 195.535156 110.523438 196.007812 109.269531 196.007812 109.113281 C 196.007812 108.957031 196.480469 108.175781 196.480469 107.863281 C 196.480469 107.394531 196.949219 106.457031 196.949219 106.300781 C 196.949219 106.144531 197.109375 104.738281 197.109375 104.425781 C 197.109375 104.269531 197.578125 102.863281 197.578125 102.394531 C 197.578125 102.238281 198.050781 100.363281 198.207031 99.738281 C 198.363281 99.269531 198.363281 98.800781 198.679688 98.332031 C 198.679688 98.175781 198.835938 97.859375 198.835938 97.859375 L 199.308594 97.703125 L 199.464844 97.703125 L 199.9375 97.859375 C 200.09375 97.859375 200.40625 98.332031 200.40625 98.332031 C 200.40625 98.488281 200.878906 99.582031 200.878906 99.738281 L 201.035156 100.363281 C 201.035156 100.519531 201.195312 102.550781 201.195312 102.707031 C 201.195312 102.863281 201.664062 105.363281 201.824219 106.144531 C 201.824219 106.144531 201.980469 106.925781 201.980469 107.082031 L 201.824219 107.550781 L 201.980469 107.707031 L 202.136719 108.332031 C 202.136719 108.488281 202.609375 109.113281 202.609375 109.113281 L 203.078125 109.269531 L 203.867188 109.269531 C 204.023438 109.269531 205.121094 109.113281 205.28125 109.113281 C 205.28125 108.644531 205.121094 106.769531 205.121094 106.300781 C 205.121094 106.144531 204.652344 105.363281 204.652344 105.050781 C 204.652344 104.582031 204.023438 102.082031 204.023438 101.613281 C 204.023438 101.457031 203.394531 99.425781 203.394531 99.269531 C 203.394531 99.113281 203.238281 97.859375 203.238281 97.703125 C 203.238281 96.921875 202.765625 95.046875 202.765625 94.890625 C 202.765625 94.421875 202.292969 92.546875 202.136719 92.078125 C 201.980469 92.078125 201.507812 91.921875 201.351562 91.921875 L 198.050781 91.921875 C 197.894531 92.390625 197.421875 94.265625 197.265625 94.734375 C 197.265625 94.890625 197.109375 95.359375 197.109375 95.515625 L 196.949219 96.453125 C 196.949219 96.453125 196.792969 97.078125 196.792969 97.234375 C 196.792969 97.390625 196.164062 99.269531 196.164062 99.425781 C 196.164062 99.582031 195.691406 100.832031 195.691406 100.988281 C 195.691406 101.144531 195.222656 102.238281 195.222656 102.394531 L 195.066406 103.019531 L 195.066406 103.488281 C 195.066406 103.644531 194.90625 105.050781 194.90625 105.363281 L 194.75 105.519531 L 194.121094 105.519531 L 193.648438 105.363281 L 193.648438 105.207031 L 193.179688 104.425781 L 193.023438 103.800781 C 192.550781 102.550781 192.078125 101.144531 191.605469 100.050781 C 191.605469 99.894531 190.976562 98.175781 190.976562 98.015625 L 190.820312 97.390625 C 190.820312 97.234375 190.191406 95.984375 190.191406 95.828125 L 190.035156 95.046875 L 189.5625 94.265625 L 189.40625 93.328125 L 189.25 92.859375 L 189.09375 92.703125 L 186.265625 92.703125 C 186.265625 92.859375 186.105469 94.109375 186.105469 94.265625 Z M 203.238281 109.898438 C 203.394531 109.898438 203.394531 109.425781 203.238281 109.425781 C 203.078125 109.425781 203.078125 109.898438 203.238281 109.898438 Z M 206.222656 107.863281 C 206.378906 107.863281 206.378906 107.394531 206.222656 107.394531 C 206.066406 107.394531 206.066406 107.863281 206.222656 107.863281 Z M 206.222656 107.863281 " fill-opacity="1" fill-rule="nonzero"/><path fill="#a02054" d="M 210.78125 105.832031 C 210.78125 105.363281 210.308594 100.207031 210.152344 98.488281 C 210.152344 98.332031 209.996094 97.234375 209.996094 97.078125 L 209.996094 90.515625 C 210.152344 90.515625 210.625 89.890625 210.625 89.890625 L 210.78125 89.421875 L 210.9375 89.265625 C 211.09375 89.109375 211.722656 88.640625 211.722656 88.640625 C 211.878906 88.484375 212.667969 88.015625 212.980469 88.015625 C 213.453125 88.015625 215.652344 87.859375 215.96875 87.859375 L 220.839844 87.859375 L 220.996094 88.015625 C 221.152344 88.171875 221.625 89.421875 221.78125 89.578125 L 221.9375 90.203125 C 221.9375 90.359375 222.097656 91.453125 222.097656 91.765625 L 222.097656 92.390625 C 221.9375 92.390625 221.308594 92.859375 221.152344 92.859375 C 221.152344 92.859375 220.523438 93.640625 220.367188 93.640625 C 220.367188 93.640625 219.582031 93.796875 219.109375 93.796875 C 218.953125 93.796875 217.695312 93.953125 217.539062 93.953125 C 216.910156 93.953125 216.28125 94.109375 215.652344 94.421875 L 215.652344 96.296875 L 216.125 96.921875 L 217.066406 96.921875 C 217.222656 96.921875 218.636719 96.765625 218.953125 96.765625 L 220.839844 96.765625 L 221.308594 96.921875 L 221.308594 100.207031 C 221.308594 100.363281 221.152344 101.457031 221.152344 101.613281 L 220.996094 102.082031 L 220.523438 102.550781 C 220.367188 102.550781 219.582031 103.019531 219.265625 103.019531 C 219.109375 103.019531 218.011719 103.175781 217.851562 103.175781 C 217.695312 103.175781 216.910156 103.644531 216.59375 103.644531 L 216.59375 104.582031 C 216.59375 104.738281 216.753906 105.832031 216.753906 105.988281 L 219.738281 105.988281 C 219.894531 105.988281 220.996094 105.832031 221.152344 105.832031 L 223.351562 105.832031 L 223.824219 105.988281 L 223.980469 106.144531 C 223.980469 106.300781 224.140625 106.769531 224.140625 106.925781 L 224.140625 107.863281 C 224.140625 107.863281 223.980469 108.644531 223.980469 108.800781 C 223.980469 108.957031 223.824219 109.425781 223.824219 109.425781 C 223.824219 109.585938 223.195312 110.210938 223.039062 110.367188 L 222.097656 111.304688 C 222.097656 111.304688 220.679688 111.773438 220.054688 111.773438 C 219.894531 111.773438 218.636719 111.929688 218.480469 111.929688 C 218.324219 111.929688 217.066406 112.398438 216.910156 112.398438 C 216.753906 112.398438 216.125 112.554688 215.96875 112.554688 C 215.496094 112.554688 214.710938 112.710938 214.710938 112.710938 L 212.039062 112.710938 C 211.878906 112.710938 211.566406 112.554688 211.410156 112.242188 L 211.253906 111.773438 L 211.253906 109.898438 C 211.253906 109.269531 211.09375 106.613281 211.09375 106.144531 L 211.09375 105.832031 Z M 211.878906 103.800781 C 211.878906 104.269531 212.351562 107.238281 212.351562 108.175781 L 212.351562 108.800781 C 212.351562 109.269531 212.507812 110.992188 212.507812 111.460938 L 214.710938 111.460938 C 214.867188 111.460938 215.652344 111.304688 215.96875 111.304688 C 216.125 111.304688 217.222656 110.835938 217.382812 110.835938 C 217.382812 110.835938 218.324219 110.679688 218.636719 110.679688 C 218.796875 110.679688 219.894531 110.523438 220.054688 110.523438 C 220.210938 110.523438 220.839844 110.367188 220.839844 110.367188 L 220.996094 110.210938 L 220.996094 109.425781 L 220.839844 108.957031 L 220.679688 108.800781 L 216.59375 108.800781 C 216.59375 108.800781 216.125 108.957031 215.96875 108.957031 L 215.179688 109.425781 L 214.550781 109.425781 L 214.082031 108.957031 C 214.082031 108.957031 213.921875 108.175781 213.921875 108.019531 C 213.921875 107.863281 213.765625 105.988281 213.765625 105.832031 C 213.765625 105.675781 213.609375 104.582031 213.609375 104.425781 L 213.609375 102.394531 L 213.765625 102.238281 L 214.394531 102.238281 L 215.179688 102.082031 C 215.339844 102.082031 216.753906 101.925781 217.066406 101.925781 C 217.222656 101.925781 217.851562 101.769531 217.851562 101.769531 L 218.011719 101.613281 L 218.011719 100.832031 C 218.011719 100.675781 217.539062 100.207031 217.382812 100.207031 L 214.550781 100.207031 L 214.082031 100.050781 C 213.921875 99.894531 213.609375 99.582031 213.609375 99.425781 L 213.453125 98.644531 L 213.296875 98.015625 C 213.296875 97.859375 213.136719 97.234375 213.136719 97.234375 C 213.136719 97.078125 212.980469 95.984375 212.980469 95.828125 L 212.980469 93.796875 C 213.136719 93.796875 213.609375 93.640625 213.765625 93.640625 L 213.921875 93.640625 C 214.394531 93.640625 215.339844 93.484375 215.496094 93.484375 L 216.28125 93.328125 C 216.4375 93.328125 218.324219 93.171875 218.480469 93.171875 L 218.953125 93.015625 L 218.953125 91.765625 L 218.796875 91.296875 C 218.796875 91.296875 218.324219 91.140625 218.167969 91.140625 C 215.96875 91.296875 213.765625 91.296875 211.566406 91.765625 L 211.566406 94.109375 C 211.566406 95.515625 211.722656 101.457031 211.722656 102.863281 C 211.722656 103.175781 211.878906 103.644531 211.878906 103.800781 Z M 211.878906 103.800781 " fill-opacity="1" fill-rule="nonzero"/><path fill="#a02054" d="M 234.984375 88.484375 L 235.769531 88.484375 C 235.925781 88.484375 236.710938 88.953125 237.027344 88.953125 L 237.496094 89.421875 L 237.65625 90.203125 C 237.65625 90.359375 238.125 91.140625 238.125 91.453125 C 238.125 91.609375 238.597656 93.328125 238.597656 93.484375 L 238.753906 93.953125 C 238.753906 94.109375 238.910156 94.578125 238.910156 94.578125 C 238.910156 94.734375 239.070312 95.828125 239.070312 95.984375 C 239.070312 96.453125 239.539062 97.859375 239.539062 98.015625 L 239.699219 98.644531 C 239.699219 98.800781 239.855469 99.269531 239.855469 99.425781 C 239.855469 99.582031 240.011719 100.363281 240.011719 100.675781 C 240.011719 100.675781 240.167969 101.300781 240.167969 101.457031 L 240.328125 102.082031 C 240.328125 102.238281 240.796875 103.644531 240.796875 103.957031 C 240.796875 104.113281 241.269531 105.207031 241.269531 105.363281 C 241.269531 105.519531 241.742188 106.144531 241.742188 106.300781 L 241.742188 107.238281 C 241.742188 107.238281 241.582031 108.019531 241.582031 108.175781 L 241.269531 108.488281 C 241.269531 108.644531 241.113281 109.425781 241.113281 109.742188 L 240.957031 110.367188 C 240.957031 110.523438 240.796875 111.148438 240.796875 111.304688 L 236.554688 111.304688 L 236.398438 111.148438 C 236.398438 110.992188 236.242188 110.210938 236.242188 109.898438 C 236.242188 109.742188 235.453125 108.332031 235.453125 108.019531 C 235.453125 107.550781 234.984375 106.144531 234.984375 105.832031 L 234.824219 105.832031 C 234.667969 105.832031 233.410156 105.988281 233.253906 105.988281 C 232.78125 106.144531 231.839844 106.300781 231.839844 106.300781 L 231.683594 106.457031 C 231.683594 106.925781 231.210938 109.113281 231.054688 109.425781 C 231.054688 109.585938 230.582031 110.054688 230.582031 110.210938 L 229.640625 111.148438 L 229.011719 111.304688 L 228.539062 111.773438 C 228.539062 111.773438 227.753906 111.929688 227.597656 111.929688 C 227.441406 111.929688 226.652344 112.085938 226.339844 112.085938 L 225.554688 112.554688 L 224.140625 112.554688 L 224.140625 110.992188 L 224.296875 110.367188 C 224.296875 110.210938 224.925781 108.332031 224.925781 108.175781 L 225.082031 107.707031 C 225.082031 107.550781 225.238281 106.457031 225.238281 106.300781 C 225.238281 106.300781 225.394531 105.675781 225.394531 105.519531 L 225.554688 104.894531 C 225.554688 104.425781 226.339844 102.082031 226.339844 101.613281 C 226.339844 101.457031 226.8125 100.832031 226.8125 100.675781 L 226.96875 99.738281 L 227.125 99.113281 L 227.28125 98.332031 C 227.28125 98.175781 227.753906 96.765625 227.910156 96.296875 L 228.066406 95.671875 C 228.066406 95.515625 228.226562 94.734375 228.226562 94.421875 C 228.226562 94.265625 228.855469 92.859375 228.855469 92.546875 C 228.855469 92.546875 229.011719 91.765625 229.011719 91.609375 C 229.011719 91.453125 229.167969 90.671875 229.167969 90.359375 C 229.167969 90.203125 230.109375 89.421875 230.425781 89.109375 C 230.898438 89.109375 231.839844 88.484375 231.996094 88.484375 C 231.996094 88.484375 233.882812 88.328125 234.355469 88.328125 L 234.511719 88.328125 Z M 229.953125 94.265625 L 229.796875 94.734375 C 229.796875 94.890625 229.640625 95.984375 229.640625 96.140625 C 229.640625 96.296875 229.011719 97.546875 229.011719 97.703125 L 228.695312 98.644531 C 228.695312 98.800781 228.226562 99.894531 228.226562 100.050781 C 228.226562 100.519531 227.441406 102.863281 227.441406 103.332031 C 227.441406 103.488281 226.96875 104.582031 226.96875 104.738281 L 226.8125 105.519531 L 226.652344 106.144531 C 226.652344 106.300781 226.183594 107.550781 226.183594 107.707031 C 226.183594 107.863281 225.710938 108.957031 225.710938 109.113281 L 225.554688 109.585938 C 225.554688 109.742188 225.082031 110.992188 225.082031 111.148438 L 225.710938 111.148438 C 225.867188 111.148438 227.125 110.679688 227.28125 110.679688 L 227.441406 110.523438 L 227.597656 110.054688 C 227.597656 110.054688 227.753906 109.269531 227.753906 109.113281 C 227.753906 108.957031 227.910156 108.175781 227.910156 107.863281 C 227.910156 107.707031 228.066406 107.238281 228.066406 107.082031 L 228.226562 106.457031 C 228.226562 106.300781 228.382812 105.675781 228.382812 105.519531 C 229.011719 105.519531 231.839844 105.050781 232.46875 104.894531 L 233.097656 104.738281 L 234.667969 104.738281 C 234.667969 104.738281 235.140625 104.894531 235.296875 105.207031 L 235.453125 105.363281 C 235.453125 105.832031 235.925781 107.238281 235.925781 107.394531 C 236.082031 108.175781 236.710938 110.210938 236.710938 110.210938 L 238.910156 110.210938 L 238.910156 110.054688 L 238.753906 109.425781 C 238.753906 109.269531 238.125 108.175781 238.125 108.019531 C 238.125 108.019531 237.96875 107.082031 237.96875 106.613281 C 237.96875 106.457031 237.8125 105.207031 237.8125 105.050781 L 237.65625 104.582031 C 237.65625 104.582031 237.183594 103.019531 237.027344 102.394531 L 236.867188 101.613281 L 236.710938 100.988281 C 236.710938 100.988281 236.554688 100.207031 236.554688 100.050781 C 236.554688 99.894531 236.398438 99.113281 236.398438 98.800781 C 236.398438 98.644531 235.925781 96.921875 235.925781 96.765625 C 235.925781 96.296875 235.296875 93.484375 235.296875 93.171875 C 235.296875 93.015625 234.667969 91.765625 234.511719 91.296875 L 234.355469 91.140625 L 232.3125 91.140625 C 232.152344 91.140625 231.054688 91.296875 230.898438 91.296875 L 230.269531 91.453125 C 230.425781 92.234375 230.425781 93.484375 229.953125 94.265625 Z M 232.941406 102.863281 C 232.78125 102.863281 231.367188 103.019531 231.054688 103.019531 L 229.484375 103.019531 L 229.011719 102.863281 L 229.011719 101.613281 C 229.011719 101.457031 229.167969 100.675781 229.167969 100.363281 C 229.324219 99.425781 229.953125 96.765625 229.953125 96.609375 C 229.953125 96.453125 230.425781 95.828125 230.425781 95.671875 C 230.425781 95.515625 231.054688 94.109375 231.054688 93.796875 L 231.210938 93.328125 C 231.210938 93.171875 231.683594 92.703125 231.683594 92.703125 C 231.683594 92.546875 232.152344 92.234375 232.152344 92.234375 C 232.152344 92.234375 232.78125 92.390625 232.941406 92.703125 L 233.410156 93.171875 C 233.410156 93.328125 233.570312 94.734375 233.570312 95.046875 C 233.570312 95.203125 234.039062 96.296875 234.039062 96.609375 L 234.199219 97.234375 C 234.199219 97.390625 234.667969 99.269531 234.667969 99.425781 C 234.667969 99.582031 235.296875 100.675781 235.296875 100.832031 C 235.296875 100.988281 235.453125 101.613281 235.453125 101.769531 L 235.453125 102.707031 L 235.296875 103.175781 L 234.984375 103.175781 C 234.824219 103.175781 234.511719 103.019531 234.355469 102.707031 L 232.941406 102.707031 Z M 232.625 97.859375 L 232.46875 98.332031 C 232.46875 98.488281 231.996094 99.582031 231.996094 99.738281 L 231.996094 100.519531 L 233.410156 100.519531 L 233.570312 100.363281 L 233.410156 99.738281 C 233.410156 99.582031 233.253906 98.488281 233.253906 98.332031 C 233.253906 98.175781 233.097656 97.546875 233.097656 97.546875 L 232.941406 97.390625 Z M 232.625 97.859375 " fill-opacity="1" fill-rule="nonzero"/><path fill="#a02054" d="M 244.882812 103.019531 C 244.882812 102.550781 244.414062 100.050781 244.414062 99.582031 L 244.414062 99.113281 C 244.414062 98.957031 244.253906 97.859375 244.253906 97.703125 L 244.253906 90.359375 L 245.199219 89.421875 L 245.984375 88.953125 L 246.140625 88.796875 C 246.296875 88.796875 246.769531 88.328125 246.925781 88.328125 L 249.285156 88.328125 C 249.441406 88.328125 250.070312 88.484375 250.070312 88.484375 C 250.070312 88.484375 250.699219 88.953125 250.699219 89.109375 C 250.699219 89.265625 251.171875 89.890625 251.171875 90.046875 C 251.328125 90.515625 251.640625 91.296875 251.640625 91.453125 C 251.640625 91.609375 251.800781 94.109375 251.800781 94.265625 C 251.800781 94.421875 251.957031 95.046875 251.957031 95.203125 L 251.957031 96.609375 C 251.957031 96.765625 252.113281 98.957031 252.113281 99.269531 L 252.113281 100.675781 C 252.113281 100.832031 252.269531 102.550781 252.269531 103.019531 C 252.269531 103.175781 252.429688 104.582031 252.429688 104.894531 L 253.84375 104.894531 C 254 104.894531 254.628906 104.738281 254.785156 104.738281 L 255.414062 104.738281 C 255.570312 104.738281 256.828125 104.582031 256.984375 104.582031 L 257.769531 104.425781 L 258.558594 104.425781 L 259.027344 104.894531 C 259.027344 104.894531 259.5 106.144531 259.5 106.457031 C 259.5 106.613281 259.65625 107.238281 259.65625 107.394531 L 259.65625 107.550781 L 259.5 108.019531 L 258.871094 108.644531 C 258.714844 109.113281 257.300781 110.523438 256.984375 110.835938 C 256.828125 110.835938 256.355469 110.992188 256.199219 110.992188 L 255.257812 111.148438 L 254.628906 111.304688 L 254.15625 111.304688 L 253.214844 111.460938 C 253.054688 111.460938 251.640625 111.617188 251.328125 111.617188 C 251.171875 111.617188 250.382812 111.773438 250.070312 111.773438 L 249.128906 111.773438 C 248.96875 111.773438 247.242188 111.929688 247.085938 111.929688 L 245.984375 111.929688 C 245.984375 111.773438 245.511719 110.523438 245.511719 110.367188 C 245.511719 109.113281 245.199219 104.113281 244.882812 103.019531 Z M 247.085938 110.835938 L 249.914062 110.835938 C 250.070312 110.835938 250.855469 110.679688 251.171875 110.679688 L 251.640625 110.679688 C 251.800781 110.679688 253.84375 110.210938 254 110.210938 L 254.15625 110.210938 C 254.3125 110.210938 254.941406 110.054688 254.941406 110.054688 L 255.414062 109.898438 L 256.042969 109.742188 L 256.042969 108.800781 C 256.042969 108.644531 255.886719 108.019531 255.886719 107.863281 L 255.257812 107.863281 C 255.097656 107.863281 253.371094 108.019531 253.214844 108.019531 C 252.742188 108.019531 251.011719 108.175781 250.542969 108.175781 L 249.914062 108.175781 C 249.757812 108.175781 249.285156 108.019531 249.285156 108.019531 L 248.8125 107.550781 C 248.8125 107.082031 248.65625 105.207031 248.65625 104.738281 L 248.65625 99.582031 C 248.65625 99.425781 248.5 98.015625 248.5 97.703125 C 248.5 97.234375 248.339844 93.953125 248.339844 93.484375 C 248.339844 93.328125 248.183594 92.546875 248.183594 92.546875 L 247.554688 91.765625 L 247.085938 91.609375 L 245.671875 91.609375 L 245.511719 91.765625 L 245.511719 94.421875 C 245.511719 95.359375 245.671875 98.644531 245.671875 99.269531 C 245.671875 99.425781 245.828125 100.207031 245.828125 100.519531 C 245.828125 100.675781 245.984375 102.082031 245.984375 102.394531 L 245.984375 102.863281 C 245.984375 104.113281 246.613281 109.269531 246.613281 110.523438 C 246.769531 110.367188 246.925781 110.523438 247.085938 110.835938 Z M 247.085938 110.835938 " fill-opacity="1" fill-rule="nonzero"/><path fill="#a02054" d="M 185.636719 123.496094 C 185.636719 123.027344 185.792969 120.523438 185.792969 120.054688 L 185.792969 119.117188 L 185.949219 118.648438 L 186.265625 118.179688 L 186.421875 118.023438 C 187.050781 117.554688 187.835938 117.085938 188.621094 116.617188 C 188.777344 116.617188 189.09375 116.460938 189.09375 116.460938 L 190.507812 116.460938 C 190.976562 116.460938 192.550781 116.617188 192.707031 116.617188 C 193.023438 116.617188 193.335938 116.773438 193.492188 116.773438 L 193.964844 116.929688 C 194.121094 116.929688 195.378906 117.398438 195.535156 117.398438 C 195.691406 117.398438 196.480469 118.335938 196.792969 118.335938 L 197.578125 118.804688 C 197.578125 118.804688 198.363281 119.585938 198.679688 120.054688 L 199.464844 120.996094 L 199.621094 121.152344 C 199.621094 121.152344 200.09375 121.621094 200.09375 121.777344 L 200.25 122.246094 C 200.25 122.402344 200.40625 122.871094 200.40625 122.871094 L 200.40625 125.683594 C 200.40625 125.839844 200.25 126.933594 200.25 127.089844 C 200.25 127.246094 199.78125 128.027344 199.78125 128.339844 C 199.78125 128.339844 199.621094 128.808594 199.308594 128.964844 C 199.308594 129.121094 198.679688 129.589844 198.679688 129.746094 C 198.523438 129.902344 197.894531 130.683594 197.578125 130.996094 L 197.421875 131.152344 C 196.949219 131.308594 195.851562 132.40625 195.535156 132.40625 C 195.378906 132.40625 194.121094 133.1875 193.964844 133.1875 L 193.808594 133.34375 L 192.863281 133.5 C 192.550781 133.5 192.234375 133.65625 192.234375 133.65625 L 191.921875 137.5625 C 191.765625 137.71875 190.664062 139.125 190.507812 139.4375 L 190.351562 140.0625 L 190.191406 140.53125 L 190.035156 140.6875 C 190.035156 140.6875 189.25 140.84375 189.09375 140.84375 C 188.621094 140.84375 187.363281 141 187.207031 141 L 185.949219 141 L 185.636719 140.6875 C 185.636719 140.6875 185.476562 139.75 185.476562 139.28125 C 185.476562 138.8125 185.320312 137.25 185.320312 137.09375 L 185.320312 133.65625 C 185.320312 132.71875 185.636719 125.527344 185.636719 123.496094 Z M 186.890625 139.28125 L 188.621094 139.28125 L 189.25 132.40625 C 189.25 132.40625 189.722656 132.246094 189.878906 132.246094 C 190.035156 132.246094 191.765625 132.089844 191.921875 132.089844 C 192.078125 132.089844 192.863281 131.621094 193.179688 131.621094 C 193.335938 131.621094 194.121094 130.996094 194.4375 130.996094 C 194.59375 130.996094 195.066406 130.527344 195.222656 130.371094 C 195.378906 130.214844 196.007812 129.746094 196.007812 129.589844 L 196.164062 129.121094 C 196.320312 128.496094 196.949219 127.089844 196.949219 127.089844 C 196.949219 126.933594 197.109375 125.058594 197.109375 124.433594 L 197.109375 122.871094 C 197.109375 122.714844 196.949219 121.621094 196.636719 121.464844 C 196.636719 121.308594 196.164062 120.835938 196.164062 120.679688 L 195.851562 120.367188 C 195.691406 120.210938 194.4375 119.742188 194.277344 119.585938 C 194.277344 119.585938 193.492188 119.117188 193.335938 119.117188 C 193.179688 119.117188 192.707031 118.960938 192.707031 118.960938 L 187.363281 118.960938 L 187.363281 120.835938 C 187.363281 120.996094 187.207031 122.089844 187.207031 122.246094 C 187.207031 122.714844 187.050781 124.121094 187.050781 124.277344 C 187.050781 125.214844 186.890625 128.964844 186.890625 129.746094 L 186.890625 137.09375 C 186.734375 137.40625 186.890625 138.96875 186.890625 139.28125 Z M 188.933594 125.683594 C 188.933594 125.527344 188.777344 124.433594 188.777344 124.277344 L 188.777344 123.339844 C 188.777344 123.339844 189.25 121.933594 189.40625 121.308594 C 189.40625 121.152344 189.5625 120.679688 189.5625 120.679688 L 189.722656 120.523438 C 189.878906 120.523438 190.351562 120.367188 190.507812 120.367188 L 191.136719 120.367188 C 191.292969 120.367188 192.394531 120.523438 192.394531 120.523438 C 192.550781 120.523438 193.492188 120.996094 193.648438 121.152344 C 193.808594 121.308594 194.59375 121.933594 194.59375 122.089844 C 194.75 122.246094 195.066406 123.339844 195.066406 123.496094 L 195.066406 127.558594 C 195.066406 127.558594 194.59375 128.339844 194.4375 128.496094 L 193.179688 129.746094 C 193.179688 129.746094 192.394531 130.214844 192.078125 130.214844 C 192.078125 130.214844 191.292969 130.371094 191.136719 130.371094 C 190.976562 130.371094 190.191406 130.527344 189.878906 130.527344 L 189.722656 130.527344 C 189.5625 130.527344 189.25 130.371094 189.09375 130.058594 C 189.09375 129.589844 188.933594 126.308594 188.933594 125.683594 Z M 191.605469 127.714844 C 191.765625 127.714844 192.234375 127.558594 192.394531 127.558594 C 192.550781 127.558594 193.179688 127.089844 193.179688 127.089844 C 193.335938 126.933594 193.808594 126.152344 193.808594 125.839844 L 193.808594 124.902344 C 193.808594 124.746094 193.648438 124.121094 193.648438 123.964844 L 193.492188 123.339844 C 193.492188 123.183594 193.023438 122.558594 193.023438 122.558594 L 192.550781 122.089844 C 192.394531 122.089844 191.921875 121.933594 191.765625 121.933594 L 191.605469 122.714844 Z M 191.605469 127.714844 " fill-opacity="1" fill-rule="nonzero"/><path fill="#a02054" d="M 203.078125 131.152344 C 203.078125 130.683594 202.609375 128.183594 202.609375 127.714844 L 202.609375 127.246094 C 202.609375 127.089844 202.449219 125.996094 202.449219 125.839844 L 202.449219 118.492188 L 203.394531 117.554688 L 204.179688 117.085938 L 204.335938 116.929688 C 204.496094 116.929688 204.964844 116.460938 205.121094 116.460938 L 207.480469 116.460938 C 207.636719 116.460938 208.265625 116.617188 208.265625 116.617188 C 208.265625 116.617188 208.738281 117.085938 208.738281 117.242188 C 208.738281 117.398438 209.207031 118.023438 209.207031 118.179688 C 209.367188 118.648438 209.679688 119.429688 209.679688 119.585938 C 209.679688 119.742188 209.835938 122.246094 209.835938 122.402344 C 209.835938 122.558594 209.996094 123.183594 209.996094 123.339844 L 209.996094 125.058594 C 209.996094 125.214844 210.152344 127.402344 210.152344 127.714844 L 210.152344 129.121094 C 210.152344 129.277344 210.308594 130.996094 210.308594 131.464844 C 210.308594 131.621094 210.464844 133.03125 210.464844 133.34375 L 211.878906 133.34375 C 212.039062 133.34375 212.667969 133.1875 212.824219 133.1875 L 213.453125 133.1875 C 213.609375 133.1875 214.867188 133.03125 215.023438 133.03125 L 215.808594 132.875 L 216.4375 132.875 L 216.910156 133.34375 C 216.910156 133.34375 217.382812 134.59375 217.382812 134.90625 C 217.382812 135.0625 217.539062 135.6875 217.539062 135.84375 L 217.539062 136 L 217.695312 136.15625 L 217.066406 136.78125 C 216.910156 137.25 215.496094 138.65625 215.179688 138.96875 C 215.023438 138.96875 214.550781 139.125 214.394531 139.125 L 213.453125 139.28125 L 212.824219 139.4375 L 212.351562 139.4375 L 211.410156 139.90625 C 211.253906 139.90625 209.835938 140.0625 209.523438 140.0625 C 209.367188 140.0625 208.582031 140.21875 208.265625 140.21875 L 207.324219 140.21875 C 207.164062 140.21875 205.4375 140.375 205.28125 140.375 L 204.335938 140.375 L 204.179688 140.21875 C 204.179688 140.0625 203.707031 138.8125 203.707031 138.65625 C 203.707031 137.40625 203.394531 132.40625 203.078125 131.152344 Z M 205.4375 138.96875 L 208.265625 138.96875 C 208.421875 138.96875 209.207031 138.8125 209.523438 138.8125 L 209.835938 138.8125 C 209.996094 138.8125 212.039062 138.34375 212.195312 138.34375 L 212.351562 138.34375 C 212.507812 138.34375 213.136719 138.1875 213.136719 138.1875 L 213.609375 138.03125 L 214.238281 137.875 L 214.238281 136.9375 C 214.238281 136.78125 214.082031 136.15625 214.082031 136 L 213.453125 136 C 213.296875 136 211.566406 136.15625 211.410156 136.15625 C 210.9375 136.15625 209.207031 136.3125 208.738281 136.3125 L 208.265625 136.3125 C 208.109375 136.3125 207.636719 136.15625 207.636719 136.15625 L 207.164062 135.6875 C 207.164062 135.21875 207.007812 133.34375 207.007812 132.875 L 207.007812 127.714844 C 207.007812 127.558594 206.851562 126.152344 206.851562 125.839844 C 206.851562 125.371094 206.695312 122.089844 206.695312 121.621094 C 206.695312 121.464844 206.539062 120.679688 206.539062 120.679688 L 205.910156 120.054688 L 205.4375 119.898438 L 204.023438 119.898438 L 203.867188 120.054688 L 203.867188 122.714844 C 203.867188 123.652344 204.023438 126.933594 204.023438 127.558594 C 204.023438 127.714844 204.179688 128.496094 204.179688 128.808594 C 204.179688 128.964844 204.335938 130.371094 204.335938 130.683594 L 204.335938 131.152344 C 204.335938 132.40625 204.964844 137.5625 204.964844 138.8125 C 204.964844 138.65625 205.121094 138.8125 205.4375 138.96875 Z M 205.4375 138.96875 " fill-opacity="1" fill-rule="nonzero"/><path fill="#a02054" d="M 229.324219 116.773438 L 230.109375 116.773438 C 230.269531 116.773438 231.054688 117.242188 231.367188 117.242188 L 231.839844 117.710938 L 231.996094 118.492188 C 231.996094 118.648438 232.46875 119.429688 232.46875 119.742188 C 232.46875 119.898438 232.941406 121.621094 232.941406 121.777344 L 233.097656 122.246094 C 233.097656 122.402344 233.253906 122.871094 233.253906 122.871094 C 233.253906 123.027344 233.410156 124.121094 233.410156 124.277344 C 233.410156 124.746094 233.882812 126.152344 233.882812 126.308594 L 234.039062 126.933594 C 234.039062 127.089844 234.199219 127.558594 234.199219 127.714844 C 234.199219 127.871094 234.355469 128.652344 234.355469 128.964844 C 234.355469 128.964844 234.511719 129.589844 234.511719 129.746094 L 234.667969 130.371094 C 234.667969 130.527344 235.140625 131.933594 235.140625 132.246094 C 235.140625 132.40625 235.613281 133.5 235.613281 133.65625 C 235.613281 133.8125 236.082031 134.4375 236.082031 134.59375 L 236.082031 135.53125 C 236.082031 135.53125 235.925781 136.3125 235.925781 136.46875 L 235.769531 137.09375 C 235.769531 137.25 235.613281 138.03125 235.613281 138.34375 L 235.453125 138.96875 C 235.453125 139.125 235.296875 139.75 235.296875 139.90625 L 231.054688 139.90625 L 230.898438 139.75 C 230.898438 139.59375 230.738281 138.8125 230.738281 138.5 C 230.738281 138.34375 229.953125 136.9375 229.953125 136.625 C 229.953125 136.15625 229.484375 134.75 229.484375 134.4375 L 229.324219 134.4375 C 229.167969 134.4375 227.910156 134.59375 227.753906 134.59375 C 227.597656 134.59375 226.496094 134.75 226.496094 134.75 L 226.339844 134.90625 C 226.339844 135.375 225.867188 137.5625 225.710938 137.875 C 225.710938 138.03125 225.238281 138.5 225.238281 138.65625 L 224.296875 139.59375 L 223.667969 139.75 L 223.195312 140.21875 C 223.195312 140.21875 222.410156 140.375 222.253906 140.375 C 222.097656 140.375 221.308594 140.53125 220.996094 140.53125 L 220.210938 140.6875 L 218.796875 140.6875 L 218.796875 139.125 L 218.953125 138.5 C 218.953125 138.34375 219.582031 136.46875 219.582031 136.3125 L 219.738281 135.84375 C 219.738281 135.6875 219.894531 134.59375 219.894531 134.4375 C 219.894531 134.4375 220.054688 133.8125 220.054688 133.65625 L 220.210938 133.03125 C 220.210938 132.5625 220.996094 130.214844 220.996094 129.746094 C 220.996094 129.589844 221.46875 128.964844 221.46875 128.808594 L 221.625 127.871094 L 221.78125 127.246094 L 221.9375 126.464844 C 221.9375 126.308594 222.410156 124.902344 222.566406 124.433594 L 222.726562 123.808594 C 222.726562 123.652344 222.882812 122.871094 222.882812 122.558594 C 222.882812 122.402344 223.511719 120.996094 223.511719 120.679688 C 223.511719 120.679688 223.667969 119.898438 223.667969 119.742188 C 223.667969 119.585938 223.824219 118.804688 223.824219 118.492188 C 223.824219 118.335938 224.769531 117.554688 225.082031 117.242188 C 225.238281 117.085938 226.023438 116.460938 226.339844 116.460938 C 226.339844 116.460938 228.226562 116.304688 228.695312 116.304688 L 228.855469 116.304688 Z M 224.296875 122.558594 L 224.140625 123.027344 C 224.140625 123.183594 223.980469 124.277344 223.980469 124.433594 C 223.980469 124.589844 223.351562 125.839844 223.351562 125.996094 L 223.195312 126.933594 C 223.195312 127.089844 222.726562 128.183594 222.726562 128.339844 C 222.726562 128.808594 221.9375 131.152344 221.9375 131.621094 C 221.9375 131.777344 221.46875 132.875 221.46875 133.03125 L 221.308594 133.8125 L 220.996094 134.4375 C 220.996094 134.59375 220.523438 135.84375 220.523438 136 C 220.523438 136.15625 220.054688 137.25 220.054688 137.40625 L 219.894531 137.875 C 219.894531 138.03125 219.425781 139.28125 219.425781 139.4375 L 220.054688 139.4375 C 220.210938 139.4375 221.46875 138.96875 221.625 138.96875 L 221.78125 138.8125 L 221.9375 138.34375 C 221.9375 138.34375 222.097656 137.5625 222.097656 137.40625 C 222.097656 137.25 222.253906 136.46875 222.253906 136.15625 C 222.253906 136 222.410156 135.53125 222.410156 135.375 L 222.566406 134.75 C 222.566406 134.59375 222.726562 133.96875 222.726562 133.8125 C 223.351562 133.8125 226.183594 133.34375 226.8125 133.1875 L 227.441406 133.03125 L 229.011719 133.03125 C 229.011719 133.03125 229.484375 133.1875 229.640625 133.5 L 229.796875 133.65625 C 229.796875 134.125 230.269531 135.53125 230.269531 135.6875 C 230.425781 136.46875 231.054688 138.5 231.054688 138.5 L 233.253906 138.5 L 233.253906 138.34375 L 233.570312 137.5625 C 233.570312 137.40625 232.941406 136.3125 232.941406 136.15625 C 232.941406 136.15625 232.78125 135.21875 232.78125 134.75 C 232.78125 134.59375 232.625 133.34375 232.625 133.1875 L 232.46875 132.71875 C 232.46875 132.71875 231.996094 131.152344 231.839844 130.527344 L 231.527344 129.746094 L 231.367188 129.121094 C 231.367188 129.121094 231.210938 128.339844 231.210938 128.183594 C 231.210938 128.027344 231.054688 127.246094 231.054688 126.933594 C 231.054688 126.777344 230.582031 125.058594 230.582031 124.902344 C 230.582031 124.433594 229.953125 121.621094 229.953125 121.308594 C 229.953125 121.152344 229.324219 119.898438 229.167969 119.429688 L 229.011719 119.273438 L 226.96875 119.273438 C 226.8125 119.273438 225.710938 119.429688 225.554688 119.429688 L 224.925781 119.585938 C 224.609375 120.523438 224.609375 121.777344 224.296875 122.558594 Z M 227.28125 131.152344 C 227.125 131.152344 225.710938 131.308594 225.394531 131.308594 L 223.824219 131.308594 L 223.351562 131.152344 L 223.351562 129.902344 C 223.351562 129.746094 223.511719 128.964844 223.511719 128.652344 C 223.667969 127.714844 224.296875 125.058594 224.296875 124.902344 C 224.296875 124.746094 224.769531 124.121094 224.769531 123.964844 C 224.769531 123.808594 225.394531 122.402344 225.394531 122.089844 L 225.554688 121.621094 C 225.554688 121.464844 226.023438 120.996094 226.023438 120.996094 C 226.023438 120.835938 226.496094 120.523438 226.496094 120.523438 C 226.496094 120.523438 227.125 120.679688 227.28125 120.996094 L 227.753906 121.464844 C 227.753906 121.621094 227.910156 123.027344 227.910156 123.339844 C 227.910156 123.496094 228.382812 124.589844 228.382812 124.902344 L 228.539062 125.527344 C 228.539062 125.683594 229.011719 127.558594 229.011719 127.714844 C 229.011719 127.871094 229.640625 128.964844 229.640625 129.121094 C 229.640625 129.277344 229.796875 129.902344 229.796875 130.058594 L 229.796875 130.996094 L 229.640625 131.464844 L 229.484375 131.464844 C 229.324219 131.464844 229.011719 131.308594 228.855469 130.996094 L 227.28125 130.996094 Z M 226.96875 126.152344 L 226.652344 126.621094 C 226.652344 126.777344 226.183594 127.871094 226.183594 128.027344 L 226.183594 128.808594 L 227.597656 128.808594 L 227.753906 128.652344 L 227.597656 128.027344 C 227.597656 127.871094 227.441406 126.777344 227.441406 126.621094 C 227.441406 126.464844 227.28125 125.839844 227.28125 125.839844 L 227.125 125.527344 Z M 226.96875 126.152344 " fill-opacity="1" fill-rule="nonzero"/><path fill="#a02054" d="M 238.285156 119.117188 L 239.070312 118.648438 C 239.226562 118.648438 240.011719 117.867188 240.328125 117.867188 L 240.796875 117.710938 L 244.253906 117.710938 L 244.414062 117.867188 C 244.414062 118.023438 244.882812 118.492188 244.882812 118.492188 C 245.671875 119.898438 246.296875 121.308594 246.925781 122.714844 C 246.925781 122.871094 247.714844 124.589844 247.714844 124.746094 C 247.714844 124.746094 248.339844 125.683594 248.5 126.152344 L 248.96875 126.777344 C 249.128906 126.933594 249.597656 128.183594 249.757812 128.339844 L 249.757812 127.558594 C 249.597656 125.683594 249.285156 124.121094 248.96875 122.558594 C 248.96875 122.402344 248.8125 121.621094 248.8125 121.308594 L 248.65625 120.679688 L 248.65625 118.804688 L 250.070312 117.398438 L 250.699219 116.929688 L 250.855469 116.773438 L 251.328125 116.617188 L 253.527344 116.617188 C 253.683594 116.617188 254.941406 116.773438 255.097656 116.773438 L 255.257812 117.242188 C 255.257812 117.398438 255.414062 117.867188 255.414062 117.867188 C 255.414062 118.023438 255.570312 119.898438 255.570312 120.054688 L 255.726562 120.835938 C 255.726562 120.996094 255.886719 122.246094 255.886719 122.402344 C 255.886719 122.558594 256.042969 123.652344 256.042969 123.808594 L 256.042969 124.589844 C 256.042969 124.746094 256.199219 125.996094 256.199219 126.152344 L 256.355469 127.089844 C 256.355469 127.246094 256.515625 128.652344 256.515625 128.964844 C 256.515625 129.433594 256.671875 131.777344 256.671875 132.246094 C 256.671875 132.40625 256.828125 133.1875 256.828125 133.5 C 256.828125 133.65625 256.984375 135.0625 256.984375 135.375 L 257.140625 136.3125 L 257.140625 136.78125 C 257.140625 136.78125 256.671875 137.5625 256.515625 137.71875 L 256.355469 137.875 C 255.726562 138.5 255.414062 139.28125 254.785156 139.90625 C 254.628906 139.90625 253.214844 140.0625 252.898438 140.0625 L 251.957031 140.0625 L 251.171875 140.21875 L 250.382812 139.4375 L 250.226562 138.96875 C 250.226562 138.8125 249.597656 138.1875 249.597656 138.03125 C 249.441406 137.875 248.8125 137.09375 248.8125 136.78125 C 248.8125 136.625 248.027344 136 248.027344 135.84375 C 248.027344 135.6875 247.398438 134.90625 247.242188 134.59375 C 247.242188 134.4375 246.613281 133.8125 246.613281 133.65625 L 246.457031 133.1875 L 246.457031 134.4375 C 246.457031 134.4375 246.613281 135.0625 246.613281 135.21875 C 246.613281 135.375 247.085938 136.46875 247.085938 136.625 L 247.085938 137.09375 C 247.085938 137.25 246.457031 138.03125 246.457031 138.34375 L 246.296875 139.125 C 246.296875 139.125 245.828125 139.75 245.828125 139.90625 L 245.667969 140.0625 L 241.898438 140.0625 C 241.898438 140.21875 241.269531 140.53125 241.269531 140.53125 L 241.113281 140.53125 C 240.957031 140.53125 240.640625 140.375 240.484375 140.0625 L 240.328125 139.59375 C 240.328125 139.4375 239.855469 138.34375 239.855469 138.03125 L 239.855469 137.875 C 239.855469 137.71875 239.699219 136.3125 239.699219 136 C 239.699219 135.6875 239.539062 133.8125 239.539062 133.1875 C 239.539062 132.246094 239.382812 131.308594 239.070312 130.371094 L 239.070312 130.214844 C 239.070312 129.589844 238.910156 127.871094 238.910156 127.558594 C 238.910156 127.089844 238.441406 124.277344 238.441406 123.964844 C 238.441406 123.808594 238.285156 121.621094 238.285156 121.308594 C 238.285156 120.996094 238.125 120.835938 238.125 120.835938 L 237.496094 120.367188 L 237.496094 119.898438 C 237.496094 119.742188 238.125 119.429688 238.285156 119.117188 Z M 242.683594 125.839844 C 243.15625 126.308594 244.253906 127.871094 244.570312 128.027344 C 245.199219 128.652344 245.828125 129.433594 246.140625 130.214844 C 246.296875 130.371094 246.925781 131.621094 247.085938 131.777344 L 247.554688 132.246094 C 247.714844 132.40625 248.339844 133.8125 248.5 134.125 L 249.128906 134.90625 C 249.285156 135.0625 250.070312 136.46875 250.382812 136.78125 L 250.542969 136.9375 L 251.171875 137.875 C 251.171875 138.03125 251.640625 138.5 251.640625 138.5 C 251.640625 138.65625 252.113281 138.96875 252.113281 138.96875 L 254.15625 138.8125 L 254.15625 136.9375 C 254.15625 136.78125 254 135.375 254 135.0625 L 254 133.65625 C 254 133.5 253.84375 131.621094 253.84375 130.996094 C 253.84375 130.839844 253.683594 129.433594 253.683594 129.121094 L 253.683594 128.496094 C 253.683594 128.027344 253.527344 126.152344 253.527344 125.683594 C 253.527344 125.527344 253.371094 124.121094 253.371094 123.808594 C 253.371094 123.339844 252.898438 121.464844 252.898438 120.996094 C 252.898438 120.835938 252.742188 120.210938 252.742188 120.054688 C 252.742188 119.898438 252.585938 119.429688 252.585938 119.429688 L 252.113281 119.429688 C 251.640625 119.429688 250.226562 119.585938 250.070312 119.585938 L 250.070312 120.367188 C 250.070312 120.367188 250.226562 121.308594 250.226562 121.777344 C 250.226562 121.933594 250.382812 122.714844 250.382812 123.027344 L 250.542969 123.808594 C 250.542969 123.964844 250.699219 124.746094 250.699219 125.058594 C 250.699219 125.214844 250.855469 127.089844 250.855469 127.246094 C 250.855469 127.402344 251.011719 128.183594 251.011719 128.496094 C 251.011719 128.652344 251.171875 130.683594 251.171875 130.839844 C 251.171875 130.996094 251.328125 131.621094 251.328125 131.777344 L 251.328125 133.8125 L 250.855469 133.96875 L 250.382812 133.96875 L 249.914062 133.5 L 249.757812 133.03125 C 249.757812 133.03125 249.285156 132.40625 249.128906 132.246094 L 248.5 131.464844 L 248.339844 131.308594 C 248.183594 131.152344 247.398438 129.746094 247.085938 129.433594 L 246.925781 129.277344 L 246.457031 128.652344 L 246.296875 128.183594 L 246.140625 128.027344 L 245.671875 127.246094 C 245.671875 127.089844 244.882812 125.996094 244.882812 125.839844 L 244.570312 125.058594 C 244.570312 124.902344 243.941406 124.277344 243.941406 124.121094 L 243.3125 123.339844 C 243.15625 123.183594 242.527344 122.402344 242.527344 122.089844 L 242.210938 121.308594 L 242.054688 121.152344 L 241.898438 120.679688 L 241.582031 120.367188 L 240.640625 120.367188 C 240.484375 120.367188 239.855469 120.523438 239.855469 120.523438 L 239.855469 121.152344 C 239.855469 121.308594 240.011719 122.089844 240.011719 122.089844 C 240.011719 122.558594 240.167969 123.339844 240.167969 123.496094 L 240.167969 124.746094 L 240.328125 125.214844 L 240.328125 125.371094 C 240.328125 125.527344 240.484375 126.621094 240.484375 126.777344 C 240.484375 127.246094 240.640625 130.214844 240.640625 130.527344 C 240.640625 130.996094 241.113281 133.5 241.113281 133.96875 C 241.113281 134.59375 241.269531 137.25 241.269531 137.71875 L 241.425781 138.34375 C 241.425781 138.34375 242.210938 138.5 242.527344 138.5 L 244.097656 138.5 L 244.097656 138.03125 C 244.097656 137.875 243.941406 137.09375 243.941406 136.78125 L 243.785156 136.15625 C 243.785156 136 243.3125 134.75 243.3125 134.28125 C 243.3125 133.8125 242.527344 130.683594 242.527344 130.214844 C 242.527344 130.058594 241.898438 128.183594 241.898438 128.027344 C 241.898438 127.871094 241.742188 127.246094 241.742188 127.246094 C 241.742188 127.089844 241.582031 126.308594 241.582031 126.308594 L 241.582031 125.683594 L 242.054688 125.214844 L 242.371094 125.214844 Z M 246.296875 133.1875 C 246.457031 133.1875 246.457031 132.71875 246.296875 132.71875 C 246.140625 132.875 246.140625 133.1875 246.296875 133.1875 Z M 246.296875 133.1875 " fill-opacity="1" fill-rule="nonzero"/></svg>